<?xml version="1.0" encoding="UTF-8"?>
<svg version="1.1" xmlns="http://www.w3.org/2000/svg" width="500" height="500">
<path d="M0 0 C1.32 0 2.64 0 4 0 C5.38452148 1.54125977 5.38452148 1.54125977 6.62109375 3.69140625 C7.08193359 4.47193359 7.54277344 5.25246094 8.01757812 6.05664062 C8.72043945 7.29704102 8.72043945 7.29704102 9.4375 8.5625 C10.37112145 10.1694684 11.30729307 11.77495808 12.24609375 13.37890625 C12.92647705 14.54510498 12.92647705 14.54510498 13.62060547 15.73486328 C15.58198605 18.95569319 17.75821339 21.96890921 20 25 C24.16829627 24.17767204 25.26083363 22.77044682 27.6875 19.25 C28.37714844 18.26902344 29.06679687 17.28804687 29.77734375 16.27734375 C31.32998047 13.98795499 32.86262495 11.69193007 34.37890625 9.37890625 C34.77440674 8.7849707 35.16990723 8.19103516 35.57739258 7.57910156 C36.70506315 5.8802 37.81388629 4.16883395 38.921875 2.45703125 C39.60765625 1.64621094 40.2934375 0.83539063 41 0 C42.32 0 43.64 0 45 0 C45.598125 1.134375 46.19625 2.26875 46.8125 3.4375 C50.73043872 10.50318435 55.25332511 17.19584156 59.66943359 23.95556641 C62.48372947 28.27977075 65.24107032 32.64032614 68 37 C68.66 36.01 69.32 35.02 70 34 C73.58327789 33.33680106 77.23769225 33.53708044 80.875 33.5625 C82.38513672 33.5325293 82.38513672 33.5325293 83.92578125 33.50195312 C91.25858569 33.50682219 91.25858569 33.50682219 94.63671875 35.75390625 C96.85529918 39.40916055 97.22093753 42.765364 97 47 C95.5625 50.3125 95.5625 50.3125 94 53 C93.65060172 56.90923834 93.65060172 56.90923834 95.5 59.4375 C97.15450589 62.26394757 97.27524556 63.78880183 97 67 C93.875 67.5625 93.875 67.5625 90 67 C86.48027748 63.28560256 83.99341714 59.03639387 83 54 C81.68 54 80.36 54 79 54 C79.3081665 54.46897705 79.61633301 54.9379541 79.93383789 55.42114258 C81.32079862 57.54480303 82.6917303 59.67835654 84.0625 61.8125 C84.54783203 62.55048828 85.03316406 63.28847656 85.53320312 64.04882812 C85.98759766 64.76103516 86.44199219 65.47324219 86.91015625 66.20703125 C87.33433838 66.8616333 87.75852051 67.51623535 88.19555664 68.19067383 C89 70 89 70 88 73 C80.02201622 73.62572422 80.02201622 73.62572422 75.9375 71.125 C74 69 74 69 74 67 C72.35 66.67 70.7 66.34 69 66 C68.83564453 65.09507812 68.83564453 65.09507812 68.66796875 64.171875 C68.50941406 63.37265625 68.35085937 62.5734375 68.1875 61.75 C68.03667969 60.96109375 67.88585937 60.1721875 67.73046875 59.359375 C66.91980019 56.74095891 65.74878103 55.08895488 64 53 C63.93941406 53.92683594 63.87882812 54.85367188 63.81640625 55.80859375 C63.69072266 57.60490234 63.69072266 57.60490234 63.5625 59.4375 C63.44068359 61.22994141 63.44068359 61.22994141 63.31640625 63.05859375 C63 66 63 66 62 67 C60.00041636 67.04080783 57.99954746 67.04254356 56 67 C53.38978385 59.80672991 53.93723476 52.9182614 54.25390625 45.36132812 C54.39273651 39.10988299 54.0063957 35.84695324 50 31 C50 30.34 50 29.68 50 29 C49.34 29 48.68 29 48 29 C46.35 26.03 44.7 23.06 43 20 C38.7181939 23.91479415 35.96203144 28.00686129 33 33 C38.28 33.33 43.56 33.66 49 34 C49 36.31 49 38.62 49 41 C48.195625 41.28875 47.39125 41.5775 46.5625 41.875 C43.8673532 42.73262568 43.8673532 42.73262568 43 45 C43.969375 45.61875 44.93875 46.2375 45.9375 46.875 C49 49 49 49 50 51 C50.12207871 52.78859511 50.17548448 54.58228381 50.1875 56.375 C50.20167969 57.33148438 50.21585937 58.28796875 50.23046875 59.2734375 C49.99439693 62.06628711 49.27120502 63.55577245 48 66 C48.27571139 68.00875442 48.60235737 70.01178687 49 72 C47.26780072 73.73219928 44.97973192 73.21291761 42.625 73.25 C41.64789063 73.27578125 40.67078125 73.3015625 39.6640625 73.328125 C37 73 37 73 35.2109375 71.609375 C34 70 34 70 33 68 C30.36 68 27.72 68 25 68 C23.49337903 64.98675805 23.82229627 62.31713623 24 59 C24.99 58.01 24.99 58.01 26 57 C23.62370911 52.85329961 23.62370911 52.85329961 20 50 C19.72671875 50.57145752 19.4534375 51.14291504 19.171875 51.73168945 C17.09801177 55.74591096 14.50240946 59.43093486 12 63.1875 C11.18015625 64.43563477 11.18015625 64.43563477 10.34375 65.70898438 C9.8178125 66.49982422 9.291875 67.29066406 8.75 68.10546875 C8.27046875 68.82887451 7.7909375 69.55228027 7.296875 70.29760742 C6 72 6 72 4 73 C2.5518217 73.1227212 1.09848034 73.18725446 -0.35449219 73.22119141 C-1.25592957 73.24436432 -2.15736694 73.26753723 -3.08612061 73.29141235 C-4.06316956 73.3112619 -5.04021851 73.33111145 -6.046875 73.3515625 C-7.55281219 73.38629166 -7.55281219 73.38629166 -9.08917236 73.42172241 C-11.21759923 73.46940767 -13.34608232 73.51463608 -15.47460938 73.55761719 C-18.72287961 73.62444207 -21.9707541 73.70231936 -25.21875 73.78125 C-27.28644383 73.8261929 -29.35415194 73.87048473 -31.421875 73.9140625 C-32.39082703 73.93796051 -33.35977905 73.96185852 -34.35809326 73.98648071 C-39.04128631 74.07290838 -43.39204925 73.99566368 -48 73 C-47.47395217 68.32694174 -45.36649767 65.08987011 -42.75 61.3125 C-42.31034912 60.66531006 -41.87069824 60.01812012 -41.41772461 59.35131836 C-37.35165317 53.41001064 -33.12429817 47.58441167 -28.88964844 41.76269531 C-25.36048078 36.90621328 -21.89438377 32.01409465 -18.5 27.0625 C-18.06429687 26.42965088 -17.62859375 25.79680176 -17.1796875 25.14477539 C-14.59926053 21.38274985 -12.06944255 17.5913288 -9.56640625 13.77734375 C-8.98375 12.90005615 -8.40109375 12.02276855 -7.80078125 11.11889648 C-6.6603595 9.4007358 -5.53102245 7.67515503 -4.4140625 5.94165039 C-3.89714844 5.16684326 -3.38023438 4.39203613 -2.84765625 3.59375 C-2.39398682 2.89958984 -1.94031738 2.20542969 -1.47290039 1.49023438 C-0.98684326 0.99845703 -0.50078613 0.50667969 0 0 Z M1 19 C0.1354233 20.06115858 -0.68370672 21.15935976 -1.484375 22.26953125 C-2.25998779 23.34243408 -2.25998779 23.34243408 -3.05126953 24.43701172 C-3.61185059 25.22092285 -4.17243164 26.00483398 -4.75 26.8125 C-5.32476074 27.61187988 -5.89952148 28.41125977 -6.49169922 29.23486328 C-11.35079452 36.02386821 -16.08623303 42.89475511 -20.77246094 49.80395508 C-21.53864746 50.93353638 -21.53864746 50.93353638 -22.3203125 52.0859375 C-22.98957764 53.0766626 -22.98957764 53.0766626 -23.67236328 54.08740234 C-24.62710818 55.46281087 -25.63227106 56.80371557 -26.66748047 58.11962891 C-28.19272927 59.88785985 -28.19272927 59.88785985 -28 62 C-23.81370201 62.26273837 -19.62952953 62.42164781 -15.4375 62.5625 C-13.66536133 62.67561523 -13.66536133 62.67561523 -11.85742188 62.79101562 C-5.29563025 63.07379686 -5.29563025 63.07379686 0.28100586 60.09057617 C2.04701268 57.80409653 3.51378947 55.47389526 5 53 C6.12387063 51.70970306 7.26668297 50.4353537 8.4375 49.1875 C11.44425167 45.04504594 12.02519592 41.39200622 11.8046875 36.3203125 C10.20760403 29.73040499 6.133783 24.28249018 2 19 C1.67 19 1.34 19 1 19 Z M73 42 C73 42.99 73 43.98 73 45 C73.66 44.67 74.32 44.34 75 44 C75 43.34 75 42.68 75 42 C74.34 42 73.68 42 73 42 Z M81 42 C81.66 42.66 82.32 43.32 83 44 C80.36 44 77.72 44 75 44 C75 44.66 75 45.32 75 46 C79.29 46 83.58 46 88 46 C88.33 45.01 88.66 44.02 89 43 C87.81575674 41.58422523 87.81575674 41.58422523 84.4375 41.9375 C82.7359375 41.9684375 82.7359375 41.9684375 81 42 Z " fill="#70BEF8" transform="translate(123,221)"/>
<path d="M0 0 C3.58305992 -0.11627503 7.16563417 -0.1872736 10.75 -0.25 C11.76578125 -0.28351563 12.7815625 -0.31703125 13.828125 -0.3515625 C21.31678035 -0.45009744 21.31678035 -0.45009744 24.64453125 1.7421875 C26.84591223 5.40904112 27.22109597 8.76232718 27 13 C25.5625 16.3125 25.5625 16.3125 24 19 C23.65060172 22.90923834 23.65060172 22.90923834 25.5 25.4375 C27.15450589 28.26394757 27.27524556 29.78880183 27 33 C23.875 33.5625 23.875 33.5625 20 33 C16.48027748 29.28560256 13.99341714 25.03639387 13 20 C11.68 20 10.36 20 9 20 C9.3081665 20.46897705 9.61633301 20.9379541 9.93383789 21.42114258 C11.32079862 23.54480303 12.6917303 25.67835654 14.0625 27.8125 C14.79049805 28.91948242 14.79049805 28.91948242 15.53320312 30.04882812 C15.98759766 30.76103516 16.44199219 31.47324219 16.91015625 32.20703125 C17.54642944 33.18893433 17.54642944 33.18893433 18.19555664 34.19067383 C19 36 19 36 18 39 C10.02201622 39.62572422 10.02201622 39.62572422 5.9375 37.125 C4 35 4 35 4 33 C2.35 32.67 0.7 32.34 -1 32 C-1.10957031 31.39671875 -1.21914062 30.7934375 -1.33203125 30.171875 C-1.49058594 29.37265625 -1.64914063 28.5734375 -1.8125 27.75 C-1.96332031 26.96109375 -2.11414063 26.1721875 -2.26953125 25.359375 C-2.99947384 22.53326154 -2.99947384 22.53326154 -6 19 C-6.33 23.29 -6.66 27.58 -7 32 C-8.98 32 -10.96 32 -13 32 C-13 21.77 -13 11.54 -13 1 C-6 1 -6 1 -3.25 3.1875 C2 9.75 2 9.75 2 13 C7.94 13 13.88 13 20 13 C20 11.02 20 9.04 20 7 C13.4 7 6.8 7 0 7 C0 4.69 0 2.38 0 0 Z " fill="#1C2246" transform="translate(193,255)"/>
<path d="M0 0 C1.32 0 2.64 0 4 0 C4.8971875 1.7015625 4.8971875 1.7015625 5.8125 3.4375 C9.73043872 10.50318435 14.25332511 17.19584156 18.66943359 23.95556641 C21.48372947 28.27977075 24.24107032 32.64032614 27 37 C27.66 36.34 28.32 35.68 29 35 C29 36.98 29 38.96 29 41 C35.6 41 42.2 41 49 41 C49 42.98 49 44.96 49 47 C32.80055573 48.37542451 32.80055573 48.37542451 28.46875 45.06640625 C26.5450089 42.11949893 25 39.57716527 25 36 C22.03 35.67 19.06 35.34 16 35 C16 45.23 16 55.46 16 66 C17.65 66 19.3 66 21 66 C21 66.33 21 66.66 21 67 C19.02 67 17.04 67 15 67 C12.38978385 59.80672991 12.93723476 52.9182614 13.25390625 45.36132812 C13.39273651 39.10988299 13.0063957 35.84695324 9 31 C9 30.34 9 29.68 9 29 C8.34 29 7.68 29 7 29 C5.35 26.03 3.7 23.06 2 20 C-2.2818061 23.91479415 -5.03796856 28.00686129 -8 33 C-2.72 33.33 2.56 33.66 8 34 C8 36.31 8 38.62 8 41 C7.67 41 7.34 41 7 41 C7 39.02 7 37.04 7 35 C6.41508789 35.03029297 5.83017578 35.06058594 5.22753906 35.09179688 C2.56841257 35.22891962 -0.09079158 35.3644756 -2.75 35.5 C-3.67039063 35.54769531 -4.59078125 35.59539062 -5.5390625 35.64453125 C-6.42851562 35.68964844 -7.31796875 35.73476563 -8.234375 35.78125 C-9.05131836 35.82314453 -9.86826172 35.86503906 -10.70996094 35.90820312 C-12.80518124 35.99219063 -14.90309704 36 -17 36 C-18.921875 33.6640625 -18.921875 33.6640625 -20.75 30.625 C-21.67039063 29.12839844 -21.67039063 29.12839844 -22.609375 27.6015625 C-24 25 -24 25 -24 23 C-24.99 22.67 -25.98 22.34 -27 22 C-26.67 20.68 -26.34 19.36 -26 18 C-24.35 20.31 -22.7 22.62 -21 25 C-16.32752991 23.83188248 -15.94653067 23.07127719 -13.3125 19.25 C-12.27802734 17.77853516 -12.27802734 17.77853516 -11.22265625 16.27734375 C-9.67001953 13.98795499 -8.13737505 11.69193007 -6.62109375 9.37890625 C-6.22559326 8.7849707 -5.83009277 8.19103516 -5.42260742 7.57910156 C-4.29493685 5.8802 -3.18611371 4.16883395 -2.078125 2.45703125 C-1.39234375 1.64621094 -0.7065625 0.83539063 0 0 Z M32 42 C32 42.99 32 43.98 32 45 C32.66 44.67 33.32 44.34 34 44 C34 43.34 34 42.68 34 42 C33.34 42 32.68 42 32 42 Z M40 42 C40.66 42.66 41.32 43.32 42 44 C39.36 44 36.72 44 34 44 C34 44.66 34 45.32 34 46 C38.29 46 42.58 46 47 46 C47.33 45.01 47.66 44.02 48 43 C46.81575674 41.58422523 46.81575674 41.58422523 43.4375 41.9375 C41.7359375 41.9684375 41.7359375 41.9684375 40 42 Z " fill="#80C1F4" transform="translate(164,221)"/>
<path d="M0 0 C1.21042969 -0.03673828 1.21042969 -0.03673828 2.4453125 -0.07421875 C8.34850387 -0.10344247 8.34850387 -0.10344247 11.5 2.2109375 C14.66885228 6.7826671 14.21792738 11.40990933 14.25 16.75 C14.270625 17.60078125 14.29125 18.4515625 14.3125 19.328125 C14.3425417 24.14981779 14.22532631 27.51210918 11 31.375 C4.91694971 34.90316917 -0.64009543 35.34770023 -7.46875 33.82421875 C-10.98070352 32.62126065 -13.29473164 31.52867972 -15.265625 28.3046875 C-17.99323515 20.5929897 -17.44522601 12.3665766 -14.6875 4.75 C-10.9552657 -0.50277419 -5.90451692 0.00943214 0 0 Z M-8 9.375 C-8.09975032 11.88636104 -8.13882183 14.36403415 -8.125 16.875 C-8.12886719 17.57753906 -8.13273437 18.28007812 -8.13671875 19.00390625 C-8.44390931 22.47928808 -8.44390931 22.47928808 -7 25.375 C-4.98035801 25.44744053 -2.95832876 25.45877188 -0.9375 25.4375 C0.16722656 25.42847656 1.27195312 25.41945313 2.41015625 25.41015625 C3.26480469 25.39855469 4.11945313 25.38695312 5 25.375 C6.13130884 21.98107349 6.1329194 19.32165128 6.125 15.75 C6.12757813 14.58210938 6.13015625 13.41421875 6.1328125 12.2109375 C6.32355844 9.47414054 6.32355844 9.47414054 5 8.375 C3.00200428 8.27626184 1.00042842 8.24528201 -1 8.25 C-2.093125 8.24742187 -3.18625 8.24484375 -4.3125 8.2421875 C-6.91830354 8.06952245 -6.91830354 8.06952245 -8 9.375 Z " fill="#2B2F50" transform="translate(274,254.625)"/>
<path d="M0 0 C0.89267578 0.00966797 1.78535156 0.01933594 2.70507812 0.02929688 C4.09823242 0.06700195 4.09823242 0.06700195 5.51953125 0.10546875 C6.45990234 0.11900391 7.40027344 0.13253906 8.36914062 0.14648438 C10.69068163 0.18183779 13.01106778 0.23118201 15.33203125 0.29296875 C15.33203125 2.60296875 15.33203125 4.91296875 15.33203125 7.29296875 C14.69265625 7.60234375 14.05328125 7.91171875 13.39453125 8.23046875 C11.39592304 9.12748505 11.39592304 9.12748505 10.33203125 10.29296875 C11.78609375 11.22109375 11.78609375 11.22109375 13.26953125 12.16796875 C16.33203125 14.29296875 16.33203125 14.29296875 17.33203125 16.29296875 C17.45410996 18.08156386 17.50751573 19.87525256 17.51953125 21.66796875 C17.53371094 22.62445313 17.54789063 23.5809375 17.5625 24.56640625 C17.32642818 27.35925586 16.60323627 28.8487412 15.33203125 31.29296875 C15.60774264 33.30172317 15.93438862 35.30475562 16.33203125 37.29296875 C14.59983197 39.02516803 12.31176317 38.50588636 9.95703125 38.54296875 C8.97992188 38.56875 8.0028125 38.59453125 6.99609375 38.62109375 C4.33203125 38.29296875 4.33203125 38.29296875 2.54296875 36.90234375 C1.33203125 35.29296875 1.33203125 35.29296875 0.33203125 33.29296875 C-2.30796875 33.29296875 -4.94796875 33.29296875 -7.66796875 33.29296875 C-7.66796875 30.65296875 -7.66796875 28.01296875 -7.66796875 25.29296875 C-1.72796875 25.29296875 4.21203125 25.29296875 10.33203125 25.29296875 C10.33203125 22.98296875 10.33203125 20.67296875 10.33203125 18.29296875 C9.20023438 18.32777344 8.0684375 18.36257813 6.90234375 18.3984375 C5.42058772 18.42657211 3.93881569 18.45387262 2.45703125 18.48046875 C1.33748047 18.51817383 1.33748047 18.51817383 0.1953125 18.55664062 C-1.97265625 18.5859375 -1.97265625 18.5859375 -5.66796875 18.29296875 C-7.96580481 14.84621466 -7.96551758 13.35968763 -7.98046875 9.29296875 C-7.99722656 8.24109375 -8.01398438 7.18921875 -8.03125 6.10546875 C-7.66796875 3.29296875 -7.66796875 3.29296875 -6.43701172 1.63549805 C-4.1482078 -0.1014786 -2.85092286 -0.05447623 0 0 Z " fill="#13193E" transform="translate(155.66796875,255.70703125)"/>
<path d="M0 0 C2.33294775 -0.04241723 4.66702567 -0.04092937 7 0 C8 1 8 1 8.09765625 3.50390625 C8.08605469 4.51324219 8.07445312 5.52257812 8.0625 6.5625 C8.05347656 7.57441406 8.04445312 8.58632813 8.03515625 9.62890625 C8.02355469 10.41136719 8.01195312 11.19382812 8 12 C9.90838902 11.92234541 9.90838902 11.92234541 12 11 C13.79662657 8.47413374 13.79662657 8.47413374 15.25 5.4375 C15.77078125 4.42558594 16.2915625 3.41367187 16.828125 2.37109375 C17.21484375 1.58863281 17.6015625 0.80617187 18 0 C20.31 0 22.62 0 25 0 C25.33 0.99 25.66 1.98 26 3 C24.75652869 5.00979665 23.45556343 6.98427077 22.125 8.9375 C20.63032394 11.36133607 19.88424035 13.20653482 19 16 C20.21113515 19.72022517 21.86346658 22.23798132 24.22265625 25.34375 C26.16387234 28.24490811 26.38897236 29.59186121 26 33 C20.66666667 33.48484848 20.66666667 33.48484848 17.9375 31.5 C15.7682354 28.70094891 13.98873711 25.78665345 12.24609375 22.70703125 C11.02342088 20.68569596 11.02342088 20.68569596 8 20 C8 23.96 8 27.92 8 32 C4.535 32.495 4.535 32.495 1 33 C-1.29771877 29.37697587 -1.16171042 26.48699754 -0.9765625 22.265625 C-0.925 20.97011719 -0.8734375 19.67460937 -0.8203125 18.33984375 C-0.75544062 16.97655143 -0.69033347 15.61327028 -0.625 14.25 C-0.56672442 12.87113498 -0.50942192 11.49222847 -0.453125 10.11328125 C-0.31165822 6.74165628 -0.16024172 3.37077634 0 0 Z " fill="#4B4F6B" transform="translate(226,255)"/>
<path d="M0 0 C7 0 7 0 9.75 2.1875 C15 8.75 15 8.75 15 12 C20.61 12 26.22 12 32 12 C32 12.33 32 12.66 32 13 C25.73 13 19.46 13 13 13 C13 18.94 13 24.88 13 31 C12.67 31 12.34 31 12 31 C11.89042969 30.39671875 11.78085938 29.7934375 11.66796875 29.171875 C11.50941406 28.37265625 11.35085937 27.5734375 11.1875 26.75 C11.03667969 25.96109375 10.88585937 25.1721875 10.73046875 24.359375 C10.00052616 21.53326154 10.00052616 21.53326154 7 18 C6.67 22.29 6.34 26.58 6 31 C4.02 31 2.04 31 0 31 C0 20.77 0 10.54 0 0 Z " fill="#7BB8E8" transform="translate(180,256)"/>
<path d="M0 0 C5.94 0 11.88 0 18 0 C16.68 0.99 15.36 1.98 14 3 C13.67 3.33 13.34 3.66 13 4 C13.969375 4.61875 14.93875 5.2375 15.9375 5.875 C19 8 19 8 20 10 C20.12207871 11.78859511 20.17548448 13.58228381 20.1875 15.375 C20.20167969 16.33148438 20.21585938 17.28796875 20.23046875 18.2734375 C19.99439693 21.06628711 19.27120502 22.55577245 18 25 C18.27571139 27.00875442 18.60235737 29.01178687 19 31 C17.26780072 32.73219928 14.97973192 32.21291761 12.625 32.25 C11.64789063 32.27578125 10.67078125 32.3015625 9.6640625 32.328125 C7 32 7 32 5.2109375 30.609375 C4 29 4 29 3 27 C0.36 27 -2.28 27 -5 27 C-5 26.34 -5 25.68 -5 25 C-4.10692139 24.970271 -4.10692139 24.970271 -3.19580078 24.93994141 C-0.50507847 24.84483874 2.18485148 24.73510158 4.875 24.625 C5.81214844 24.5940625 6.74929687 24.563125 7.71484375 24.53125 C8.61074219 24.49257813 9.50664062 24.45390625 10.4296875 24.4140625 C11.25710449 24.3826416 12.08452148 24.3512207 12.93701172 24.31884766 C15.21986085 24.17400863 15.21986085 24.17400863 17 22 C17.28190557 18.90677543 17.28190557 18.90677543 17.1875 15.4375 C17.18105469 14.26058594 17.17460937 13.08367187 17.16796875 11.87109375 C17.32517435 9.10364027 17.32517435 9.10364027 16 8 C13.49583065 7.78936893 11.00859919 7.62427923 8.5 7.5 C1.13513514 7.13513514 1.13513514 7.13513514 0 6 C0 4.02 0 2.04 0 0 Z " fill="#B2BFD2" transform="translate(153,262)"/>
<path d="M0 0 C2.64 0 5.28 0 8 0 C9.03046722 1.78614318 10.04913236 3.57910018 11.0625 5.375 C11.63097656 6.37273437 12.19945312 7.37046875 12.78515625 8.3984375 C13.38650391 9.68621094 13.38650391 9.68621094 14 11 C13.67 11.66 13.34 12.32 13 13 C11.99466333 11.37829621 10.99588093 9.75252763 10 8.125 C9.443125 7.22007812 8.88625 6.31515625 8.3125 5.3828125 C7 3 7 3 7 1 C5.68 1 4.36 1 3 1 C3.46224976 1.70346558 3.46224976 1.70346558 3.93383789 2.42114258 C5.32079862 4.54480303 6.6917303 6.67835654 8.0625 8.8125 C8.54783203 9.55048828 9.03316406 10.28847656 9.53320312 11.04882812 C9.98759766 11.76103516 10.44199219 12.47324219 10.91015625 13.20703125 C11.54642944 14.18893433 11.54642944 14.18893433 12.19555664 15.19067383 C13 17 13 17 12 20 C4.02201622 20.62572422 4.02201622 20.62572422 -0.0625 18.125 C-2 16 -2 16 -2 14 C-3.32 13.67 -4.64 13.34 -6 13 C-4.02 13 -2.04 13 0 13 C0 8.71 0 4.42 0 0 Z " fill="#83BEED" transform="translate(199,274)"/>
<path d="M0 0 C0.33 0.66 0.66 1.32 1 2 C0.41883423 2.82238159 0.41883423 2.82238159 -0.17407227 3.66137695 C-1.97283469 6.2099134 -3.76767297 8.76119066 -5.5625 11.3125 C-6.17158203 12.17423828 -6.78066406 13.03597656 -7.40820312 13.92382812 C-8.32182617 15.22416992 -8.32182617 15.22416992 -9.25390625 16.55078125 C-9.80377197 17.33106689 -10.3536377 18.11135254 -10.92016602 18.9152832 C-14.04291301 23.54680195 -17.00105585 28.28737348 -20 33 C-3.17 33 13.66 33 31 33 C31.66 31.35 32.32 29.7 33 28 C35.625 25.1875 35.625 25.1875 38 23 C36.42527704 27.46171506 34.40622971 32.79688514 30 35 C28.5518217 35.1227212 27.09848034 35.18725446 25.64550781 35.22119141 C24.74407043 35.24436432 23.84263306 35.26753723 22.91387939 35.29141235 C21.44830597 35.32118668 21.44830597 35.32118668 19.953125 35.3515625 C18.94916687 35.37471527 17.94520874 35.39786804 16.91082764 35.42172241 C14.78240077 35.46940767 12.65391768 35.51463608 10.52539062 35.55761719 C7.27712039 35.62444207 4.0292459 35.70231936 0.78125 35.78125 C-1.28644383 35.8261929 -3.35415194 35.87048473 -5.421875 35.9140625 C-6.87530304 35.94990952 -6.87530304 35.94990952 -8.35809326 35.98648071 C-13.04128631 36.07290838 -17.39204925 35.99566368 -22 35 C-21.48088948 30.2564039 -19.27676672 26.95594378 -16.625 23.125 C-16.18816895 22.48167725 -15.75133789 21.83835449 -15.30126953 21.17553711 C-10.38132542 13.98719399 -5.20837689 6.98080933 0 0 Z " fill="#D1E7FA" transform="translate(97,259)"/>
<path d="M0 0 C1.65 0 3.3 0 5 0 C5 10.23 5 20.46 5 31 C3.35 31 1.7 31 0 31 C0 20.77 0 10.54 0 0 Z " fill="#0A1036" transform="translate(180,256)"/>
<path d="M0 0 C3.18404315 2.78730934 5.22373784 6.3196758 7.4375 9.875 C10.0928282 14.12889847 12.83735024 18.09672973 16 22 C17.83462231 24.9062747 19.46276526 27.92553053 21 31 C19.35 31 17.7 31 16 31 C16 32.98 16 34.96 16 37 C15.67 37 15.34 37 15 37 C14.875 33.625 14.875 33.625 15 30 C15.66 29.34 16.32 28.68 17 28 C14.62370911 23.85329961 14.62370911 23.85329961 11 21 C10.773125 21.515625 10.54625 22.03125 10.3125 22.5625 C8.5024447 25.92403127 6.26003596 28.92911144 4 32 C3.67 31.34 3.34 30.68 3 30 C3.37253906 29.56429688 3.74507812 29.12859375 4.12890625 28.6796875 C7.34687415 24.71410233 7.34687415 24.71410233 7.875 19.75 C7.26374292 17.82890633 6.63751362 15.91254085 6 14 C4.02 14.99 4.02 14.99 2 16 C1.93941406 15.18015625 1.87882813 14.3603125 1.81640625 13.515625 C1.73261719 12.43796875 1.64882812 11.3603125 1.5625 10.25 C1.48128906 9.18265625 1.40007812 8.1153125 1.31640625 7.015625 C1.05909227 4.56320038 0.68187782 2.36078709 0 0 Z " fill="#E0EEFB" transform="translate(132,250)"/>
<path d="M0 0 C2.33524782 2.25740623 4.18705073 4.2805761 6 7 C8.96175123 6.38722388 10.38058783 5.74627478 13 4 C12.608125 4.9075 12.21625 5.815 11.8125 6.75 C11.544375 7.8225 11.27625 8.895 11 10 C12.28350327 12.26757564 12.28350327 12.26757564 14 14 C14 14.66 14 15.32 14 16 C14.78375 15.195625 15.5675 14.39125 16.375 13.5625 C19 11 19 11 21 10 C20.34 11.65 19.68 13.3 19 15 C24.28 15.33 29.56 15.66 35 16 C35 18.31 35 20.62 35 23 C34.67 23 34.34 23 34 23 C34 21.02 34 19.04 34 17 C33.12263184 17.04543945 33.12263184 17.04543945 32.22753906 17.09179688 C29.56841257 17.22891962 26.90920842 17.3644756 24.25 17.5 C23.32960937 17.54769531 22.40921875 17.59539062 21.4609375 17.64453125 C20.57148438 17.68964844 19.68203125 17.73476563 18.765625 17.78125 C17.94868164 17.82314453 17.13173828 17.86503906 16.29003906 17.90820312 C14.19481876 17.99219063 12.09690296 18 10 18 C8.078125 15.6640625 8.078125 15.6640625 6.25 12.625 C5.32960937 11.12839844 5.32960937 11.12839844 4.390625 9.6015625 C3 7 3 7 3 5 C2.01 4.67 1.02 4.34 0 4 C0 2.68 0 1.36 0 0 Z " fill="#E0E8F2" transform="translate(137,239)"/>
<path d="M0 0 C3.875 3.75 3.875 3.75 5 6 C5.66 5.34 6.32 4.68 7 4 C7 5.98 7 7.96 7 10 C13.6 10 20.2 10 27 10 C27 11.98 27 13.96 27 16 C10.80055573 17.37542451 10.80055573 17.37542451 6.46875 14.06640625 C4.5450089 11.11949893 3 8.57716527 3 5 C2.01 4.67 1.02 4.34 0 4 C0 2.68 0 1.36 0 0 Z M10 11 C10 11.99 10 12.98 10 14 C10.66 13.67 11.32 13.34 12 13 C12 12.34 12 11.68 12 11 C11.34 11 10.68 11 10 11 Z M18 11 C18.66 11.66 19.32 12.32 20 13 C17.36 13 14.72 13 12 13 C12 13.66 12 14.32 12 15 C16.29 15 20.58 15 25 15 C25.33 14.01 25.66 13.02 26 12 C24.81575674 10.58422523 24.81575674 10.58422523 21.4375 10.9375 C19.7359375 10.9684375 19.7359375 10.9684375 18 11 Z " fill="#D4DCE8" transform="translate(186,252)"/>
<path d="M0 0 C0 2.31 0 4.62 0 7 C-11.79192825 7.92017937 -11.79192825 7.92017937 -14.75390625 5.6640625 C-15.8125 4 -15.8125 4 -17 1 C-11.30494264 0.3583034 -5.73266804 -0.12462322 0 0 Z " fill="#6FB8F0" transform="translate(166,274)"/>
<path d="M0 0 C1.26714844 -0.01417969 2.53429687 -0.02835937 3.83984375 -0.04296875 C7.0625 0.1875 7.0625 0.1875 9.0625 2.1875 C9.28754349 4.8997125 9.38684995 7.47623185 9.375 10.1875 C9.39111328 10.92484375 9.40722656 11.6621875 9.42382812 12.421875 C9.42578125 14.5625 9.42578125 14.5625 9.0625 18.1875 C5.58864567 20.50340289 4.09819994 20.45741835 0 20.4375 C-1.06347656 20.44265625 -2.12695312 20.4478125 -3.22265625 20.453125 C-5.9375 20.1875 -5.9375 20.1875 -7.9375 18.1875 C-8.10929052 15.29617823 -8.1697947 12.51307935 -8.125 9.625 C-8.12435547 8.83158203 -8.12371094 8.03816406 -8.12304688 7.22070312 C-8.06523143 -0.30172902 -7.3378129 0.03724778 0 0 Z M-6.9375 2.1875 C-7.03725032 4.69886104 -7.07632183 7.17653415 -7.0625 9.6875 C-7.06636719 10.39003906 -7.07023437 11.09257812 -7.07421875 11.81640625 C-7.38140931 15.29178808 -7.38140931 15.29178808 -5.9375 18.1875 C-3.91785801 18.25994053 -1.89582876 18.27127188 0.125 18.25 C1.22972656 18.24097656 2.33445312 18.23195313 3.47265625 18.22265625 C4.32730469 18.21105469 5.18195313 18.19945312 6.0625 18.1875 C7.19380884 14.79357349 7.1954194 12.13415128 7.1875 8.5625 C7.19007813 7.39460938 7.19265625 6.22671875 7.1953125 5.0234375 C7.38605844 2.28664054 7.38605844 2.28664054 6.0625 1.1875 C4.06450428 1.08876184 2.06292842 1.05778201 0.0625 1.0625 C-1.030625 1.05992187 -2.12375 1.05734375 -3.25 1.0546875 C-5.85580354 0.88202245 -5.85580354 0.88202245 -6.9375 2.1875 Z " fill="#A9ACBC" transform="translate(272.9375,261.8125)"/>
<path d="M0 0 C5.94 0 11.88 0 18 0 C16.68 0.99 15.36 1.98 14 3 C13.67 3.33 13.34 3.66 13 4 C13.66 4.66 14.32 5.32 15 6 C10.05 6 5.1 6 0 6 C0 4.02 0 2.04 0 0 Z " fill="#E5E8EF" transform="translate(153,262)"/>
<path d="M0 0 C5.20506906 5.03814264 8.40776223 9.90730449 10 17 C9.01 17 8.02 17 7 17 C6.67 16.01 6.34 15.02 6 14 C4.02 14.99 4.02 14.99 2 16 C1.93941406 15.18015625 1.87882813 14.3603125 1.81640625 13.515625 C1.73261719 12.43796875 1.64882812 11.3603125 1.5625 10.25 C1.48128906 9.18265625 1.40007812 8.1153125 1.31640625 7.015625 C1.05909227 4.56320038 0.68187782 2.36078709 0 0 Z " fill="#EDF4FC" transform="translate(132,250)"/>
<path d="M0 0 C0.66 0.33 1.32 0.66 2 1 C1.67 1.33 1.34 1.66 1 2 C-1.38072589 15.93479463 -1.38072589 15.93479463 2 29 C-1 28 -1 28 -1.984375 26.13671875 C-4.42991404 18.31348927 -5.17435681 9.8309918 -1.4375 2.25 C-0.7259375 1.13625 -0.7259375 1.13625 0 0 Z " fill="#ACAFBD" transform="translate(261,257)"/>
<path d="M0 0 C0.66 0.33 1.32 0.66 2 1 C3.2499173 5.46399037 3.41232718 9.04985475 1.5625 13.3125 C0.7890625 14.6428125 0.7890625 14.6428125 0 16 C-0.34939828 19.90923834 -0.34939828 19.90923834 1.5 22.4375 C3.15450589 25.26394757 3.27524556 26.78880183 3 30 C0.69 30 -1.62 30 -4 30 C-4 29.67 -4 29.34 -4 29 C-2.02 29 -0.04 29 2 29 C1.73445312 28.48050781 1.46890625 27.96101563 1.1953125 27.42578125 C-0.70698097 23.66979306 -2.51959705 19.94774121 -4 16 C-3.34515625 15.46890625 -2.6903125 14.9378125 -2.015625 14.390625 C0.575779 11.31709933 0.42204801 9.70710413 0.25 5.75 C0.21390625 4.67234375 0.1778125 3.5946875 0.140625 2.484375 C0.09421875 1.66453125 0.0478125 0.8446875 0 0 Z " fill="#C4C6D1" transform="translate(217,258)"/>
<path d="M0 0 C3.63 0 7.26 0 11 0 C11.66 1.65 12.32 3.3 13 5 C9.62114388 5.28526928 6.36708009 5.46087248 3 5 C0.875 2.5 0.875 2.5 0 0 Z " fill="#62B7F5" transform="translate(157,287)"/>
<path d="M0 0 C2.47442129 2.15167069 3.56238367 3.71787754 4 7 C2.41105928 8.58894072 0.75198576 8.16998411 -1.4375 8.1875 C-2.64212891 8.20876953 -2.64212891 8.20876953 -3.87109375 8.23046875 C-6 8 -6 8 -8 6 C-5.36 5.34 -2.72 4.68 0 4 C0 2.68 0 1.36 0 0 Z " fill="#B8DEFB" transform="translate(208,286)"/>
<path d="M0 0 C1.34484451 2.68968903 0.62094799 4.1022427 0 7 C0 8.32 0 9.64 0 11 C-3.63 11 -7.26 11 -11 11 C-11 10.67 -11 10.34 -11 10 C-7.7 10 -4.4 10 -1 10 C-1.66 7.69 -2.32 5.38 -3 3 C-2.01 2.01 -1.02 1.02 0 0 Z " fill="#E1E6ED" transform="translate(171,283)"/>
<path d="M0 0 C3.78699616 3.36621881 6.8272631 7.41641804 9 12 C8.67 12.66 8.34 13.32 8 14 C7.34 12.68 6.68 11.36 6 10 C5.34 10 4.68 10 4 10 C1.1605948 6.32547562 0 4.73113419 0 0 Z " fill="#C9E4FB" transform="translate(128,225)"/>
<path d="M0 0 C2.39256506 1.19628253 2.79843378 2.12565265 4.0625 4.4375 C4.40410156 5.05496094 4.74570313 5.67242187 5.09765625 6.30859375 C5.74921553 7.52991482 6.38094352 8.76188703 7 10 C5.35 10 3.7 10 2 10 C2 11.98 2 13.96 2 16 C1.67 16 1.34 16 1 16 C0.875 12.625 0.875 12.625 1 9 C1.66 8.34 2.32 7.68 3 7 C2.505 6.401875 2.01 5.80375 1.5 5.1875 C0 3 0 3 0 0 Z " fill="#CFDDEC" transform="translate(146,271)"/>
<path d="M0 0 C3.3 0.33 6.6 0.66 10 1 C8 3 8 3 4.375 3.125 C3.26125 3.08375 2.1475 3.0425 1 3 C0.67 2.01 0.34 1.02 0 0 Z " fill="#FEFFFE" transform="translate(198,263)"/>
<path d="M0 0 C1.65 0 3.3 0 5 0 C5 1.98 5 3.96 5 6 C4.01 5.67 3.02 5.34 2 5 C0.8125 2.4375 0.8125 2.4375 0 0 Z " fill="#EDF3FB" transform="translate(160,275)"/>
<path d="M0 0 C2.33524782 2.25740623 4.18705073 4.2805761 6 7 C5.67 7.99 5.34 8.98 5 10 C4.731875 9.195625 4.46375 8.39125 4.1875 7.5625 C3.795625 6.716875 3.40375 5.87125 3 5 C2.01 4.67 1.02 4.34 0 4 C0 2.68 0 1.36 0 0 Z " fill="#D0E7FB" transform="translate(137,239)"/>
<path d="M0 0 C0.99 0.99 1.98 1.98 3 3 C2.01 4.485 2.01 4.485 1 6 C0.01 5.67 -0.98 5.34 -2 5 C-1.34 3.35 -0.68 1.7 0 0 Z " fill="#DEE9F6" transform="translate(149,252)"/>
<path d="" fill="#FFFFFF" transform="translate(0,0)"/>
</svg>
