<?xml version="1.0" encoding="UTF-8"?>
<svg xmlns="http://www.w3.org/2000/svg" width="160" height="164" viewBox="0 0 160 164" fill="none">
  <path d="M6.18292 71.7436H12.768C13.687 71.7436 14.6433 71.7837 15.6425 71.8638C16.6388 71.944 17.618 72.2217 18.5771 72.7027C19.5363 73.2209 20.2578 73.9739 20.7473 74.9617C21.2369 75.9494 21.4803 77.0632 21.4803 78.3C21.4803 79.617 21.214 80.7394 20.6872 81.667C20.1576 82.5946 19.4446 83.3276 18.5456 83.8687C17.9272 84.2266 17.1198 84.4928 16.1206 84.6618C15.1214 84.8307 13.9447 84.9166 12.5876 84.9166H9.1147V93.48H6.18005V71.7436H6.18292ZM18.4569 78.3C18.4569 77.4812 18.2822 76.7396 17.933 76.0697C17.5837 75.3997 17.0683 74.8987 16.3926 74.558C16.0519 74.3776 15.5738 74.2631 14.9554 74.2144C14.3369 74.1657 13.6469 74.14 12.8911 74.14H9.11756V82.523H12.8911C13.6498 82.523 14.3369 82.4887 14.9554 82.4171C15.5738 82.3484 16.0519 82.2339 16.3926 82.0735C17.0712 81.7357 17.5837 81.2261 17.933 80.5475C18.2822 79.869 18.4569 79.1217 18.4569 78.3029V78.3Z" fill="#231F20"></path>
  <path d="M28.996 93.9267C27.8593 93.9267 26.8315 93.7263 25.9124 93.3283C24.9934 92.9304 24.2118 92.3692 23.5618 91.6506C22.9119 90.9319 22.4195 90.0702 22.0788 89.0595C21.7381 88.0517 21.5692 86.9494 21.5692 85.7526C21.5692 84.5559 21.7438 83.4565 22.0931 82.4601C22.4424 81.4638 22.9348 80.5991 23.5762 79.8719C24.2146 79.1447 24.9991 78.5807 25.9267 78.1798C26.8544 77.7819 27.8879 77.5815 29.0246 77.5815C30.1612 77.5815 31.2263 77.7819 32.1539 78.1798C33.0816 78.5778 33.8689 79.1418 34.5188 79.8719C35.1659 80.602 35.6669 81.4638 36.0162 82.4601C36.3655 83.4593 36.5401 84.5559 36.5401 85.7526C36.5401 86.9494 36.3655 88.0546 36.0162 89.0595C35.6669 90.0673 35.1687 90.9319 34.5188 91.6506C33.8689 92.3692 33.0758 92.9275 32.1396 93.3283C31.2005 93.7263 30.1526 93.9267 28.996 93.9267ZM28.996 91.7422C29.7146 91.7422 30.3674 91.599 30.9572 91.307C31.5469 91.0178 32.0394 90.6141 32.4402 90.0931C32.8382 89.5748 33.1474 88.9507 33.3679 88.2206C33.5883 87.4934 33.6971 86.6803 33.6971 85.7813C33.6971 84.8823 33.5883 84.0692 33.3679 83.3419C33.1474 82.6147 32.8325 81.9848 32.4259 81.4552C32.0165 80.9255 31.5269 80.5161 30.96 80.2269C30.3903 79.9378 29.7461 79.7917 29.0274 79.7917C28.3088 79.7917 27.6961 79.932 27.1264 80.2097C26.5566 80.4903 26.0728 80.8883 25.6748 81.4065C25.2768 81.9247 24.9648 82.5489 24.7472 83.279C24.5267 84.009 24.4179 84.8221 24.4179 85.7183C24.4179 86.6144 24.5238 87.4361 24.7328 88.1719C24.9418 88.9106 25.2453 89.5433 25.6462 90.073C26.0441 90.6027 26.528 91.0121 27.0977 91.3013C27.6675 91.5904 28.3002 91.7365 28.9988 91.7365L28.996 91.7422Z" fill="#231F20"></path>
  <path d="M38.5901 71.7437H41.3444V93.4801H38.5901V71.7437Z" fill="#231F20"></path>
  <path d="M50.7439 93.9267C48.3675 93.9267 46.5523 93.2024 45.2955 91.7565C44.0386 90.3107 43.4087 88.3094 43.4087 85.7526C43.4087 84.596 43.5776 83.5166 43.9183 82.5202C44.2562 81.521 44.7515 80.6535 45.4014 79.9149C46.0484 79.1762 46.8272 78.6036 47.7376 78.1941C48.6452 77.7847 49.6674 77.5815 50.8069 77.5815C53.2204 77.5815 54.9927 78.3688 56.1207 79.9463C57.2488 81.5239 57.8128 83.7485 57.8128 86.623H46.2861C46.3262 87.3817 46.4664 88.0746 46.7041 88.7045C46.9446 89.3343 47.2681 89.8726 47.6775 90.3221C48.0869 90.7716 48.5565 91.1209 49.0833 91.37C49.613 91.6191 50.197 91.7451 50.8355 91.7451C51.8318 91.7451 52.6879 91.516 53.3951 91.0579C54.1022 90.5998 54.7264 89.7753 54.8953 88.6873H57.8099C57.4664 90.5912 56.6275 91.8109 55.3391 92.6584C54.0507 93.5058 52.519 93.9296 50.7439 93.9296V93.9267ZM50.6837 79.7975C49.507 79.7975 48.5393 80.1725 47.7806 80.9198C47.0219 81.667 46.5438 82.8209 46.3433 84.3784H54.8753C54.7149 82.8209 54.2569 81.6699 53.4981 80.9198C52.7394 80.1725 51.8003 79.7975 50.6837 79.7975Z" fill="#231F20"></path>
  <path d="M75.0141 78.0309V74.2889H77.7684V78.0309H81.121V80.3071H77.7684V88.0001C77.7684 88.5384 77.7827 89.0223 77.8142 89.4517C77.8428 89.8812 77.9201 90.2391 78.0375 90.5282C78.1577 90.8174 78.341 91.0379 78.5901 91.1867C78.8392 91.3356 79.1827 91.4101 79.6236 91.4101C79.8441 91.4101 80.076 91.4043 80.328 91.3957C80.577 91.3872 80.8605 91.3413 81.1812 91.2612V93.4772C80.3623 93.6576 79.6036 93.7463 78.905 93.7463C78.3066 93.7463 77.7626 93.6719 77.2731 93.523C76.7835 93.3741 76.3741 93.1279 76.0448 92.7901C75.7156 92.4522 75.4607 91.9913 75.2804 91.4129C75.1 90.8346 75.0112 90.1245 75.0112 89.2885V80.3071H72.1682V78.0309H75.0112H75.0141Z" fill="#231F20"></path>
  <path d="M92.8052 93.4772C92.7651 93.2567 92.725 92.9819 92.6849 92.6526C92.6448 92.3234 92.6133 91.8996 92.5961 91.3814C91.9376 92.2604 91.1789 92.8845 90.32 93.2539C89.4611 93.6232 88.4733 93.8064 87.3567 93.8064C85.6389 93.8064 84.319 93.3712 83.3885 92.5037C82.4609 91.6362 81.9971 90.5139 81.9971 89.1368C81.9971 88.2979 82.1631 87.5964 82.4924 87.0267C82.8216 86.4569 83.2597 85.9903 83.8094 85.6209C84.3591 85.2516 84.9918 84.9624 85.7105 84.7534C86.4291 84.5444 87.1678 84.3841 87.9265 84.2753C88.6852 84.1665 89.4439 84.0806 90.2026 84.0205C90.9613 83.9603 91.6599 83.8916 92.2984 83.8115V83.2732C92.2984 82.1165 92.0293 81.2232 91.491 80.5934C90.9527 79.9635 90.0852 79.6514 88.8856 79.6514C87.8091 79.6514 86.9387 79.9148 86.2802 80.4445C85.6217 80.9742 85.2925 81.7586 85.2925 82.7951H82.5668C82.5668 81.9963 82.7214 81.2776 83.0306 80.6392C83.3398 80.0007 83.775 79.4567 84.3333 79.0072C84.8916 78.5577 85.5559 78.2084 86.3232 77.9594C87.0905 77.7103 87.9437 77.5843 88.8827 77.5843C90.34 77.5843 91.4767 77.8047 92.2955 78.2428C93.1144 78.6808 93.7213 79.242 94.1222 79.9206C94.5201 80.5991 94.7664 81.3521 94.8551 82.1795C94.9439 83.0069 94.9897 83.8115 94.9897 84.5902V88.8104C94.9897 89.7094 95.0154 90.5368 95.0641 91.2955C95.1128 92.0542 95.2187 92.7815 95.379 93.48H92.8052V93.4772ZM92.2955 85.933C91.7172 86.0132 90.9986 86.079 90.1396 86.1277C89.2807 86.1764 88.4533 86.3023 87.6545 86.5027C86.8557 86.7032 86.1771 87.0066 85.6188 87.4161C85.0606 87.8255 84.78 88.4181 84.78 89.1969C84.78 89.9756 85.0634 90.5798 85.6332 91.0693C86.2029 91.5589 86.9845 91.8023 87.9837 91.8023C88.542 91.8023 89.0803 91.7336 89.6014 91.5933C90.1196 91.453 90.5777 91.1982 90.9785 90.8288C91.3765 90.4595 91.6971 89.9499 91.9376 89.3028C92.1781 88.6558 92.2955 87.8198 92.2955 86.8034V85.9359V85.933Z" fill="#231F20"></path>
  <path d="M100.407 78.0309V80.3071C101.005 79.368 101.664 78.7267 102.382 78.3774C103.101 78.0281 103.888 77.8534 104.747 77.8534C105.325 77.8534 105.904 77.9135 106.485 78.0338V80.4588C106.144 80.3987 105.826 80.35 105.526 80.3099C105.225 80.2699 104.936 80.2498 104.658 80.2498C103.819 80.2498 103.135 80.3958 102.608 80.685C102.079 80.9742 101.666 81.3836 101.366 81.9133C101.065 82.4429 100.856 83.0871 100.736 83.843C100.616 84.6017 100.556 85.4491 100.556 86.3882V93.4829H97.8013V78.0338H100.407V78.0309Z" fill="#231F20"></path>
  <path d="M71.3865 87.0124C71.0172 86.4341 70.5477 85.976 69.9808 85.6353C69.411 85.2974 68.7668 85.0426 68.0511 84.8708C67.3324 84.7019 66.6338 84.5473 65.9553 84.407C65.4371 84.3068 64.9475 84.2037 64.4894 84.0921C64.0313 83.9833 63.6305 83.8373 63.2926 83.6569C62.9519 83.4765 62.6799 83.2475 62.4681 82.9697C62.2591 82.6892 62.1531 82.3313 62.1531 81.8932C62.1531 81.2347 62.4337 80.7108 62.992 80.3214C63.5503 79.932 64.309 79.7373 65.2682 79.7373C67.5844 79.7373 68.7496 80.7451 68.7697 82.7607H71.4953C71.4753 81.0658 70.9313 79.7774 69.8634 78.8985C68.7955 78.0195 67.2838 77.5815 65.3283 77.5815C64.4092 77.5815 63.5818 77.6902 62.8431 77.9107C62.1045 78.1312 61.4717 78.4404 60.9421 78.8383C60.4124 79.2363 60.003 79.7116 59.7138 80.2613C59.4246 80.811 59.2786 81.4151 59.2786 82.0736C59.2786 83.0127 59.4533 83.7714 59.8026 84.3497C60.1519 84.9281 60.6014 85.3833 61.1511 85.7126C61.7008 86.0418 62.3135 86.2852 62.992 86.4455C63.6706 86.6058 64.3491 86.7461 65.0277 86.8635C65.5459 86.9637 66.0469 87.0697 66.525 87.1785C67.0032 87.2873 67.4269 87.439 67.7962 87.628C68.1656 87.8169 68.4605 88.0574 68.6809 88.3466C68.9014 88.6358 69.0102 89.0194 69.0102 89.5004C69.0102 90.2591 68.7267 90.8317 68.157 91.2211C67.5872 91.6105 66.7741 91.8052 65.7177 91.8052C64.4407 91.8052 63.453 91.5303 62.7544 90.9806C62.093 90.4624 61.7494 89.6951 61.7151 88.6844H58.9293C58.9866 90.3364 59.5707 91.6162 60.6901 92.5209C61.8468 93.46 63.5045 93.9267 65.6604 93.9267C66.5594 93.9267 67.3926 93.8179 68.1599 93.5975C68.9272 93.377 69.5914 93.0678 70.1497 92.6698C70.708 92.2719 71.146 91.788 71.4667 91.2182C71.7845 90.6485 71.9448 90.0158 71.9448 89.3172C71.9448 88.358 71.7587 87.5907 71.3923 87.0124H71.3865Z" fill="#231F20"></path>
  <path fill-rule="evenodd" clip-rule="evenodd" d="M116.872 82.6919H133.804V99.6241L133.114 100.466L130.257 86.2421L116.033 83.3848L116.875 82.6948L116.872 82.6919ZM151.02 81.9103H134.088V64.9781L134.778 64.1364L137.635 78.3601L151.859 81.2174L151.017 81.9074L151.02 81.9103Z" fill="#231F20"></path>
</svg>
