<?xml version="1.0" encoding="UTF-8"?>
<svg xmlns="http://www.w3.org/2000/svg" width="160" height="164" viewBox="0 0 160 164" fill="none">
  <g clip-path="url(#clip0_15060_6910)">
    <path d="M17.063 91.492H20.3134V90.5963H12.6759V91.492H15.9263V98.5594H17.063V91.492Z" fill="#231F20"></path>
    <path d="M26.0848 98.5594H27.2214V95.309C27.2214 93.4429 26.0848 92.6286 24.5376 92.6286C23.4824 92.6286 22.5867 93.0358 22.1015 93.8467V90.5963H20.9648V98.5594H22.1015V95.8756C22.1015 94.0876 23.2381 93.3581 24.3781 93.3581C25.4333 93.3581 26.0848 93.9281 26.0848 95.3905V98.5594Z" fill="#231F20"></path>
    <path d="M29.6608 95.9604C29.7422 97.0971 30.4717 97.9928 31.7746 97.9928C32.7518 97.9928 33.3998 97.6671 33.6441 96.8562H34.8621C34.6179 98.2371 33.2369 98.7257 31.856 98.7257C29.7422 98.7257 28.5242 97.589 28.5242 95.801C28.5242 93.772 29.8237 92.632 31.856 92.632C33.8884 92.632 34.9436 93.6872 34.9436 95.6381V95.9638H29.6608V95.9604ZM31.8526 93.3615C30.716 93.3615 29.9017 93.9315 29.7388 95.231H33.8002C33.8002 93.9315 32.8264 93.3615 31.8492 93.3615H31.8526Z" fill="#231F20"></path>
    <path d="M77.8471 93.6838C78.0099 93.6838 78.2542 93.6838 78.658 93.7652V92.7915C78.4951 92.71 78.3323 92.71 78.0065 92.71C76.9513 92.71 76.2185 93.28 75.8113 94.0095L75.7299 92.8729H74.6747C74.6747 93.28 74.7561 93.6872 74.7561 94.1724V98.5594H75.8113V95.7942C75.8113 94.4133 76.4628 93.6838 77.8437 93.6838H77.8471Z" fill="#231F20"></path>
    <path d="M111.573 93.6838C111.817 93.6838 112.061 93.6838 112.469 93.7652V92.7915C112.306 92.71 112.143 92.71 111.736 92.71C110.68 92.71 110.029 93.28 109.54 94.0095V92.8729H108.485V98.5628H109.622V95.7976C109.622 94.4167 110.273 93.6872 111.573 93.6872V93.6838Z" fill="#231F20"></path>
    <path d="M57.6964 97.7485L55.9084 92.8729H54.6089L56.8821 98.5594H58.4259L60.2954 93.7652L62.3278 98.5594H63.7901L66.0668 92.8729H64.8453L63.0573 97.7485L61.1097 92.8729H59.644L57.6964 97.7485Z" fill="#231F20"></path>
    <path d="M43.1477 95.4719H40.7116V98.5594H39.575V90.5963H42.9882C45.4277 90.5148 46.2386 91.5734 46.2386 92.9543C46.2386 94.4167 45.2649 95.4719 43.1511 95.4719H43.1477ZM42.9848 91.4106H40.7116V94.5795H43.0663C44.5286 94.5795 45.0172 94.0095 45.0172 92.9543C45.0172 92.0586 44.5286 91.4106 42.9848 91.4106Z" fill="#231F20"></path>
    <path d="M50.3814 98.7223C48.1048 98.7223 46.8867 97.6671 46.8867 95.7162C46.8867 93.7652 48.1048 92.6286 50.3814 92.6286C52.8209 92.6286 53.9576 93.7652 53.9576 95.7162C53.9576 97.6671 52.7395 98.7223 50.3814 98.7223ZM50.3814 93.3615C48.8376 93.3615 48.0267 94.3352 48.0267 95.7196C48.0267 96.9376 48.8376 97.9928 50.3814 97.9928C52.0066 97.9928 52.8209 96.9376 52.8209 95.7196C52.8209 94.3386 52.0066 93.3615 50.3814 93.3615Z" fill="#231F20"></path>
    <path d="M67.7737 95.9604C67.9366 97.0971 68.588 97.9928 69.8875 97.9928C70.8613 97.9928 71.5941 97.6671 71.8384 96.8562H72.9751C72.7308 98.2371 71.3498 98.7257 69.9689 98.7257C67.8551 98.7257 66.7185 97.589 66.7185 95.801C66.7185 93.772 67.9366 92.632 69.9689 92.632C72.0013 92.632 73.1379 93.6872 73.1379 95.6381V95.9638H67.7737V95.9604ZM69.9655 93.3615C68.8289 93.3615 68.0146 93.9315 67.8517 95.231H71.9131C71.9131 93.9315 70.9393 93.3615 69.9621 93.3615H69.9655Z" fill="#231F20"></path>
    <path d="M114.172 95.9604C114.253 97.0971 114.983 97.9928 116.285 97.9928C117.259 97.9928 117.911 97.6671 118.155 96.8562H119.373C119.129 98.2371 117.748 98.7257 116.285 98.7257C114.253 98.7257 113.035 97.589 113.035 95.801C113.035 93.772 114.335 92.632 116.367 92.632C118.399 92.632 119.454 93.6872 119.454 95.6381V95.9638H114.172V95.9604ZM116.367 93.3615C115.23 93.3615 114.335 93.9315 114.253 95.231H118.314C118.314 93.9315 117.341 93.3615 116.363 93.3615H116.367Z" fill="#231F20"></path>
    <path d="M93.2883 91.1662C93.5326 91.1662 93.9398 91.2477 94.5064 91.3291V90.5148C94.0992 90.4334 93.6107 90.4334 93.044 90.4334C91.4188 90.4334 90.9302 91.2477 90.9302 92.6286V92.8729H89.4679V93.6058H90.9302V98.5628H91.9854V93.6058H94.3435V92.8729H91.9854V92.3843C91.9854 91.4886 92.3926 91.1662 93.2849 91.1662H93.2883Z" fill="#231F20"></path>
    <path d="M85.4066 98.7223C83.0485 98.7223 81.8304 97.6671 81.8304 95.7162C81.8304 93.7652 83.1299 92.6286 85.4066 92.6286C87.6832 92.6286 88.9827 93.7652 88.9827 95.7162C88.9827 97.6671 87.6832 98.7223 85.4066 98.7223ZM85.4066 93.3615C83.8628 93.3615 83.0485 94.3352 83.0485 95.7196C83.0485 96.9376 83.8594 97.9928 85.4066 97.9928C86.9538 97.9928 87.7613 96.9376 87.7613 95.7196C87.7613 94.3386 87.0284 93.3615 85.4066 93.3615Z" fill="#231F20"></path>
    <path d="M134 94.0095C133.674 93.1138 132.782 92.6286 131.968 92.6286C131.153 92.6286 130.342 93.0357 129.854 93.8466L129.772 92.8729H128.717C128.717 93.28 128.799 93.6872 128.799 94.1724V98.5594H129.854V95.7942C129.854 94.0875 130.831 93.3581 131.723 93.3581C132.616 93.3581 133.104 94.0095 133.104 95.6313V98.556H134.241V95.7908C134.241 93.7618 135.459 93.3547 136.029 93.3547C137.166 93.3547 137.491 94.169 137.491 95.6279V98.5526H138.547V95.2208C138.547 93.3513 137.573 92.6184 136.192 92.6184C135.055 92.6184 134.241 93.4327 133.997 93.9993L134 94.0095Z" fill="#231F20"></path>
    <path d="M142.859 98.7223C144.973 98.7223 146.028 98.1523 146.028 96.9342C146.028 96.0385 145.458 95.6347 144.403 95.4719L142.533 95.0681C141.722 94.9053 141.315 94.7424 141.315 94.2538C141.315 93.6838 141.967 93.3581 143.022 93.3581C143.836 93.3581 144.566 93.6024 144.647 94.3319H145.784C145.784 92.9509 144.24 92.6252 143.022 92.6252C141.56 92.6252 140.26 93.1138 140.26 94.4133C140.26 95.3056 140.911 95.7128 141.804 95.8756L143.592 96.2014C144.162 96.3642 144.81 96.5271 144.81 97.0157C144.81 97.6671 144.162 97.9894 142.94 97.9894C141.967 97.9894 141.234 97.6637 141.071 96.9342H139.934C140.016 98.2337 141.234 98.7223 142.859 98.7223Z" fill="#231F20"></path>
    <path d="M102.388 98.5594H98.9749V90.5963H102.388C105.476 90.5963 106.857 91.9772 106.857 94.5795C106.857 97.1819 105.231 98.5594 102.388 98.5594ZM102.066 91.4106H100.196V97.6671H102.229C104.991 97.6671 105.642 96.2048 105.642 94.5795C105.642 92.4658 104.912 91.4106 102.066 91.4106Z" fill="#231F20"></path>
    <path d="M125.792 98.5594H126.848V94.661C126.848 93.28 125.711 92.6286 124.086 92.6286C122.868 92.6286 121.405 92.9543 121.242 94.3352H122.461C122.542 93.7652 123.112 93.3615 124.086 93.3615C125.059 93.3615 125.711 93.7686 125.711 94.7424V94.9867H125.059C123.76 94.9867 120.832 94.9053 120.832 96.8528C120.832 97.9894 121.809 98.7223 123.271 98.7223C124.408 98.7223 125.141 98.6409 125.708 97.7485L125.789 98.5628L125.792 98.5594ZM125.711 96.0419C125.711 97.4228 124.978 97.9928 123.597 97.9928C122.461 97.9928 122.053 97.5042 122.053 96.8562C122.053 95.6381 124.33 95.7196 125.141 95.7196H125.711V96.0419Z" fill="#231F20"></path>
    <path d="M125.711 83.7696V81.3335L128.229 81.0892C129.043 80.9264 129.365 80.1935 129.528 80.034L135.625 70.0385C136.11 69.3056 135.625 68.5761 134.974 68.4947L131.805 68.169V65.6514H145.699C146.513 65.6514 146.998 66.2214 147.324 66.7066L155.45 79.1383C156.102 80.1121 156.587 80.9264 157.401 81.0078L160 81.2521V83.7696H144.318V81.3335L146.269 81.0892C147.243 81.0078 148.057 80.5192 147.243 79.3826L146.51 78.246H135.378L134.482 79.6269C133.993 80.4412 134.482 81.0078 135.296 81.0892L137.329 81.3335V83.7696H125.708H125.711ZM137.332 74.9955H144.403L140.827 69.4685L137.332 74.9955Z" fill="#E92E36"></path>
    <path d="M115.312 65.648H97.4344V68.1656L99.6297 68.3285C100.522 68.4913 100.848 69.0613 100.848 69.8722V79.6235C100.848 80.3564 100.522 81.0044 99.7925 81.0858L97.4344 81.4116V83.7662H115.312C123.601 83.7662 127.177 79.7863 127.177 74.4221C127.177 69.7094 123.601 65.6447 115.312 65.6447V65.648ZM112.547 80.2749H107.915V69.1428H112.547C117.015 69.1428 118.803 70.1199 118.803 74.7513C118.803 79.3826 117.015 80.2783 112.547 80.2783V80.2749Z" fill="#E92E36"></path>
    <path d="M0 83.7696H14.5455V81.3335L12.0245 81.0892C11.4545 81.0078 10.8879 80.6821 10.8879 79.464V76.5393H22.1015V79.3012C22.1015 80.1121 21.9386 80.9264 20.9649 81.0078L18.4473 81.2521V83.7696H32.9928V81.2521L30.3938 81.0078C29.9052 80.9264 29.3386 80.5192 29.3386 79.5454V70.1199C29.3386 69.1427 29.6643 68.4947 30.4752 68.4133L32.9928 68.169V65.6514H18.4473V68.0875L20.9649 68.4133C21.8606 68.4947 22.1015 69.2276 22.1015 70.1199V72.8817H10.8879V70.0385C10.8879 68.9833 11.3765 68.4947 12.1059 68.4133L14.5455 68.169V65.6514H0.08143V68.169L2.52094 68.4133C3.41328 68.4947 3.739 69.2276 3.65757 70.1199V79.3012C3.65757 80.3564 3.41328 81.0078 2.43951 81.0892L0 81.3335V83.7696Z" fill="#E92E36"></path>
    <path d="M33.6407 74.6698C33.6407 68.9799 38.2721 65 48.5119 65C58.7518 65 63.3017 68.9833 63.3017 74.6698C63.3017 80.3564 58.6703 84.4211 48.5119 84.4211C38.3535 84.4211 33.6407 80.4412 33.6407 74.6698ZM48.5119 68.4133C44.3692 68.4133 42.0111 69.9571 42.0111 74.6698C42.0111 79.3826 44.3692 81.0078 48.5119 81.0078C52.6547 81.0078 54.9313 79.464 54.9313 74.6698C54.9313 69.8756 52.5766 68.4133 48.5119 68.4133Z" fill="#E92E36"></path>
    <path d="M64.116 83.7696H75.6553V81.3335L73.2192 81.0892C72.4897 81.0078 72.0825 80.4378 72.0825 79.5454V70.3642L81.6709 83.0435C81.9967 83.5287 82.6447 83.773 83.2147 83.773H92.3179V70.0419C92.3179 69.3904 92.4808 68.4981 93.3731 68.4167L95.8941 68.1724V65.6548H84.3547V68.0909L86.8757 68.4167C87.768 68.4981 87.9309 69.309 87.9309 70.1233V79.0603L78.4239 66.4657C78.0168 65.9771 77.5316 65.6514 76.8801 65.6514H64.1228V68.169L66.4808 68.4133C67.3732 68.5761 67.6989 68.9833 67.6989 70.1199V79.3012C67.6989 80.4378 67.3732 80.9264 66.4808 81.0892L64.1228 81.3335V83.7696H64.116Z" fill="#E92E36"></path>
  </g>
  <defs>
    <clipPath id="clip0_15060_6910">
      <rect width="160" height="164" fill="white"></rect>
    </clipPath>
  </defs>
</svg>
