<?xml version="1.0" encoding="UTF-8"?>
<svg xmlns="http://www.w3.org/2000/svg" width="160" height="164" viewBox="0 0 160 164" fill="none">
  <g clip-path="url(#clip0_15052_31064)">
    <path d="M119.933 113.408C119.042 112.552 117.99 112 116.92 111.411C115.975 110.911 115.047 110.234 114.745 109.181C114.477 108.308 114.692 107.112 115.511 106.667C116.795 106.007 120.094 106.845 120.326 110.234H120.575L120.843 107.059C120.843 107.059 117.723 105.544 115.048 106.507C113.979 106.9 113.052 107.915 113.016 109.038C112.963 110.518 113.889 111.926 115.21 112.675C116.6 113.442 118.277 114.262 119.186 115.6C119.987 116.795 119.542 118.88 118.133 119.362C116.797 119.808 113.819 118.81 113.694 115.672H113.445L113.159 118.845C113.159 118.845 117.242 120.699 120.078 119.005C121.646 118.079 121.826 115.208 119.936 113.407M109.717 119.452H100.036V119.22C100.695 119.22 101.623 118.971 101.623 117.936V107.934C101.623 106.686 100.411 106.651 100.036 106.651V106.419H109.378L109.61 109.7H109.342C108.986 107.846 107.612 106.652 105.652 106.652H104.813C103.886 106.652 103.477 107.169 103.477 107.882V112.768H104.278C105.811 112.715 106.704 111.645 106.704 110.468H106.99V115.282H106.704C106.704 114.106 105.723 113.071 104.243 113.018H103.477V117.992C103.477 119.169 104.778 119.223 104.813 119.223H105.972C108.433 119.223 109.538 117.583 109.682 115.8H109.966L109.717 119.455V119.452ZM91.867 119.631C89.4606 119.631 85.9302 117.509 85.9302 113.157C85.9302 106.025 92.2788 106.274 92.2788 106.274C95.0061 106.221 96.9156 108.022 96.9156 108.022L96.7017 111.214H96.3983C96.2737 109.164 94.7569 106.579 92.2436 106.561C88.3204 106.544 88.0346 111.393 88.1416 113.176C88.5344 120.041 95.1131 119.22 96.9845 115.493C96.9845 115.493 96.1111 119.631 91.867 119.631ZM81.5263 107.934C81.5263 106.829 82.1858 106.651 82.8819 106.651V106.419H78.3711V106.651C79.0657 106.651 79.7076 106.829 79.7076 107.934V117.936C79.7076 119.041 79.0657 119.22 78.3696 119.22V119.452H82.8804V119.22C82.1858 119.22 81.5249 119.041 81.5249 117.936L81.5263 107.934ZM75.3213 109.895H75.0722C74.6985 107.452 72.8608 106.651 71.3454 106.651H70.5247C69.5619 106.651 69.1691 107.15 69.1691 107.88V112.766H69.9722C71.6473 112.766 72.3977 111.607 72.3977 110.323H72.682V115.423H72.3977C72.3977 114.087 71.47 113.017 69.9546 113.017H69.1706V117.92C69.1706 119.08 70.1159 119.222 70.9175 119.222V119.453H65.7472V119.222C66.3891 119.222 67.2977 118.973 67.2977 117.903V107.936C67.2977 106.634 66.1927 106.652 65.7472 106.652V106.42H75.0722L75.3213 109.898V109.895ZM62.6974 109.895H62.4483C62.0731 107.452 60.2368 106.651 58.7215 106.651H57.9008C56.938 106.651 56.5452 107.15 56.5452 107.88V112.766H57.3469C59.0234 112.766 59.7723 111.607 59.7723 110.323H60.0581V115.423H59.7723C59.7723 114.087 58.8461 113.017 57.3307 113.017H56.5467V117.92C56.5467 119.08 57.4919 119.222 58.2936 119.222V119.453H53.1218V119.222C53.7637 119.222 54.6738 118.973 54.6738 117.903V107.936C54.6738 106.634 53.5688 106.652 53.1233 106.652V106.42H62.4498L62.6989 109.898L62.6974 109.895ZM48.5391 112.677C48.5391 109.183 47.059 106.312 44.742 106.312C42.4412 106.312 40.9434 109.183 40.9434 112.677C40.9434 116.171 42.4412 119.22 44.742 119.22C47.059 119.22 48.5391 116.172 48.5391 112.677ZM50.7858 112.766C50.7858 116.456 47.9691 119.452 44.742 119.452C41.515 119.452 38.6968 116.456 38.6968 112.766C38.6968 109.076 41.5135 106.08 44.742 106.08C47.9691 106.08 50.7858 109.076 50.7858 112.766Z" fill="#1D1D1B"></path>
    <path d="M100.078 57.4329H90.101V57.194C90.781 57.194 91.7365 56.9361 91.7365 55.8721V45.5622C91.7365 44.277 90.4864 44.2403 90.101 44.2403V44.0015H99.7294L99.9683 47.3824H99.6928C99.3249 45.4728 97.9107 44.2403 95.8898 44.2403H95.0266C94.0711 44.2403 93.6475 44.7723 93.6475 45.508V50.5435H94.4755C96.0554 50.4878 96.9742 49.3857 96.9742 48.1738H97.2688V53.1345H96.9742C96.9742 51.9225 95.963 50.8557 94.4389 50.8014H93.6475V55.9278C93.6475 57.1412 94.9899 57.1955 95.0266 57.1955H96.221C98.7563 57.1955 99.8965 55.5043 100.043 53.668H100.338L100.08 57.4343L100.078 57.4329ZM86.9809 44.2403V44.0015H82.2957V44.2403C83.0123 44.2403 83.729 44.4059 83.729 45.5622V50.5977H77.5914V45.5813C77.5914 44.4059 78.2905 44.2403 79.0071 44.2403V44.0015H74.2852V44.2403C74.8538 44.2403 75.7185 44.4602 75.7185 45.6003V55.853C75.7185 56.9918 74.8538 57.194 74.2852 57.194V57.4329H79.0071V57.194C78.2905 57.194 77.5914 57.0284 77.5914 55.8721V50.8557H83.729V55.8721C83.729 57.0284 83.049 57.194 82.3323 57.194V57.4329H87.0176V57.194C86.468 57.194 85.6034 56.9918 85.6034 55.853V45.5813C85.6034 44.4426 86.4299 44.2403 86.9809 44.2403ZM71.2032 47.9877H70.8178C70.6156 46.2965 69.7158 44.2389 67.4559 44.2389H66.3905V55.8516C66.3905 57.1383 67.4193 57.1749 68.3015 57.1749V57.4329H62.586V57.1749C63.4873 57.1749 64.478 57.1002 64.478 55.8706V44.2389H63.3027C61.0414 44.2389 60.3248 46.2774 60.0683 47.9877H59.6638L59.9393 44H70.9292L71.2032 47.9877Z" fill="#1D1D1B"></path>
    <path d="M18.1679 75.7605C18.1679 71.4226 18.039 67.0407 11.9395 67.0407C11.2947 67.0407 10.6499 67.0407 10.049 67.2562C9.10375 67.5566 8.45893 68.5443 8.24496 69.4896C8.116 70.0904 8.15996 70.6928 8.15996 71.2511V84.6532H11.982C13.7436 84.6532 18.1679 83.0631 18.1679 75.7605ZM23.3661 75.589C23.3661 85.0826 13.9165 85.1676 11.941 85.1676H8.16143V95.306C8.16143 96.4652 8.29039 97.1101 8.80479 97.8838L3.77955 94.6187V70.1769C3.77955 67.1272 1.24568 67.0847 0 67.0847V66.4838H12.6708C16.2364 66.4838 23.3661 67.813 23.3661 75.589Z" fill="#1D1D1B"></path>
    <path d="M47.9353 81.5596C47.9353 73.1402 44.3698 66.2245 38.7862 66.2245C33.2451 66.2245 29.6355 73.1402 29.6355 81.5596C29.6355 89.9789 33.2436 97.3241 38.7862 97.3241C44.3698 97.3241 47.9353 89.9789 47.9353 81.5596ZM53.3475 81.775C53.3475 90.6677 46.5607 97.8824 38.7862 97.8824C31.0116 97.8824 24.2234 90.6662 24.2234 81.7735C24.2234 72.8808 31.0102 65.6661 38.7862 65.6661C46.5622 65.6661 53.3475 72.8837 53.3475 81.775Z" fill="#1D1D1B"></path>
    <path d="M75.5103 82.1179C75.3814 78.6813 75.037 75.2022 73.4484 72.1949C72.3742 70.133 70.6566 68.5444 68.3792 67.8131C67.091 67.3837 65.6724 67.0408 64.3417 67.0408C62.3662 67.0408 60.7761 67.3837 60.7761 69.919V94.2743C60.7761 97.1526 62.0218 97.2816 64.1702 97.2816C67.3064 97.2816 70.6141 96.0784 72.6746 93.631C74.4361 91.6115 75.7243 87.1007 75.5103 82.1179ZM80.9664 81.8175C80.9664 97.582 70.0557 97.8824 64.1717 97.8824H52.4886V97.3241C54.6371 97.3241 56.3547 96.4653 56.3547 94.0164V70.2194C56.3547 68.2 55.3669 67.0408 52.5311 67.0408V66.4824H66.5781C67.3943 66.4824 68.2106 66.5249 69.0269 66.6553C74.0522 67.3426 80.9664 70.3059 80.9664 81.8175Z" fill="#1D1D1B"></path>
    <path d="M87.7093 94.2318C87.7093 96.8961 89.2993 97.324 90.9744 97.324V97.8824H80.1077V97.324C81.7827 97.324 83.3289 96.8946 83.3289 94.2318V70.1344C83.3289 67.4716 81.7827 67.0422 80.1077 67.0422V66.4838H90.9744V67.0422C89.2993 67.0422 87.7093 67.4716 87.7093 70.1344V94.2318Z" fill="#1D1D1B"></path>
    <path d="M121.772 66.4824V67.0833C119.882 67.0833 116.575 68.5004 116.575 73.3117V84.8672C116.618 94.9191 113.826 98.4408 106.31 98.4408C96.8175 98.4408 95.5703 91.44 95.5703 86.4998V70.4349C95.5703 67.8145 94.0682 67.0847 91.8333 67.0847V66.4839H103.216V67.0847C100.896 67.0847 99.9947 67.772 99.9947 70.4349C99.9947 72.3679 99.8657 88.0899 100.251 90.1079C100.594 92.5142 101.454 94.8752 103.688 96.0359C104.633 96.5078 105.578 96.6807 106.609 96.6807C116.101 96.6807 116.016 88.5618 116.016 84.8672V73.2692C116.016 68.3714 112.837 67.0833 110.819 67.0833V66.4824H121.772Z" fill="#1D1D1B"></path>
    <path d="M155.963 70.2194V94.1029C155.963 97.324 158.625 97.2816 160 97.2816V97.8839H147.63V97.2816C149.091 97.2816 151.409 97.1526 151.409 94.1893V69.7915L140.714 97.8839H140.156L128.473 68.9752V91.0121C128.473 95.8659 131.779 97.283 133.669 97.283V97.8853H122.63V97.283C124.691 97.283 127.913 95.9948 127.913 91.0546V70.0069C127.913 67.1712 124.691 67.2151 123.96 67.2151V66.4853H132.595L142.732 90.8406L151.968 66.4853H159.398V67.0862C156.134 67.0862 155.963 68.9767 155.963 70.2224" fill="#1D1D1B"></path>
  </g>
  <defs>
    <clipPath id="clip0_15052_31064">
      <rect width="160" height="164" fill="white"></rect>
    </clipPath>
  </defs>
</svg>
