<?xml version="1.0" encoding="UTF-8"?>
<svg xmlns="http://www.w3.org/2000/svg" width="160" height="164" viewBox="0 0 160 164" fill="none">
  <path d="M21.0142 76.2285V77.8618H23.1388L19.5847 84.4343L15.9862 77.8618H18.5708V76.2285H7.89551V77.8618H10.3363L15.2989 86.8829L21.0456 86.8855L25.9246 77.8618H28.3706V76.2285H21.0142Z" fill="#1D1D1B"></path>
  <mask id="mask0_15060_6922" style="mask-type:luminance" maskUnits="userSpaceOnUse" x="7" y="76" width="146" height="12">
    <path d="M152.104 76.0038H7.89282V87.2017H152.104V76.0038Z" fill="white"></path>
  </mask>
  <g mask="url(#mask0_15060_6922)">
    <path d="M73.5728 77.8594V76.2287H83.4118V77.8594H80.9605V85.221H83.2341C85.3404 85.221 86.7228 83.8308 86.7228 81.944H88.3456V86.8752H73.5754V85.2263H76.0554V77.862H73.5754L73.5728 77.8594Z" fill="#1D1D1B"></path>
    <path d="M49.7109 76.0038C44.7692 76.0038 42.1428 78.4708 42.1428 81.5623C42.1428 84.6538 44.6699 87.1965 49.737 87.1965C54.8042 87.1965 57.3051 84.6956 57.3051 81.5623C57.3051 78.429 54.6526 76.0038 49.7109 76.0038ZM49.656 85.5057C47.8502 85.4718 47.0584 83.4805 47.0924 81.497C47.129 79.4455 48.1089 77.6581 49.8024 77.6842C51.4905 77.7155 52.3843 79.537 52.3477 81.591C52.3137 83.5275 51.5141 85.5397 49.656 85.5057Z" fill="#1D1D1B"></path>
    <path d="M105.133 77.8646L110.096 86.8805L115.845 86.8883L120.724 77.8646H123.165V76.2313H115.811V77.8646H117.933L114.384 84.4318L110.783 77.8646H113.365V76.2313H102.693L102.69 77.8646H105.133Z" fill="#1D1D1B"></path>
    <path d="M144.51 76.0039C139.569 76.0039 136.942 78.4709 136.942 81.5624C136.942 84.6539 139.469 87.1966 144.537 87.1966C149.604 87.1966 152.105 84.6957 152.105 81.5624C152.105 78.4291 149.452 76.0039 144.51 76.0039ZM144.456 85.5058C142.65 85.4719 141.858 83.4805 141.892 81.4971C141.929 79.4456 142.909 77.6581 144.602 77.6843C146.29 77.7156 147.184 79.5371 147.147 81.5911C147.113 83.5276 146.314 85.5398 144.456 85.5058Z" fill="#1D1D1B"></path>
  </g>
</svg>
