<?xml version="1.0" encoding="UTF-8"?>
<svg xmlns="http://www.w3.org/2000/svg" width="160" height="164" viewBox="0 0 160 164" fill="none">
  <path d="M46.3943 70.4183C44.0213 66.8369 39.9455 66.1338 37.1881 66.0679C34.7602 66.0129 24.2467 66.002 18.1275 66.002C6.06498 66.002 12.9641 66.002 2.09906 66.002V71.7586C14.9965 71.7586 30.2999 71.7256 37.0013 71.8355C38.1988 71.8574 39.3853 71.9783 40.3191 72.8132C41.1979 73.5932 41.5055 74.8127 41.11 75.8783C40.4838 77.5921 38.7261 78.0205 36.9903 78.0535C34.3317 78.0974 27.0371 78.1084 21.5881 78.1194C8.24019 78.1414 14.0188 78.1194 2.08807 78.1194V83.865C14.9746 83.865 30.3109 83.8431 36.9903 83.942C39.0777 83.9749 41.2748 84.7 41.2748 87.018C41.2748 89.336 39.0777 90.0941 36.9903 90.127C30.3329 90.2259 14.9855 90.2039 2.08807 90.2039V95.9605C15.0295 95.9605 31.9588 96.0045 37.1771 95.8836C39.9346 95.8177 44.0103 95.1256 46.3833 91.5332C48.6134 88.1715 48.0641 83.7882 45.1419 80.9758C48.0641 78.1634 48.6134 73.791 46.3833 70.4183H46.3943Z" fill="#686D71"></path>
  <path d="M151.672 69.4515C147.739 66.6282 143.466 66.2327 139.994 66.1448C136.578 66.0679 131.425 66.0239 126.877 66.0129C115.77 65.969 122.45 65.991 111.87 65.991V71.7696C123.131 71.7696 131.019 71.6817 139.708 71.9234C142.257 72.0003 145.004 72.2639 147.465 73.9777C149.805 75.6036 151.189 78.1853 151.189 80.9648C151.189 83.7442 149.837 86.3369 147.508 87.9628C145.048 89.6766 142.301 89.9403 139.752 90.0172C131.063 90.2589 123.164 90.171 111.914 90.171L111.881 95.9496C123.208 95.9496 131.348 95.9935 140.005 95.7958C143.466 95.7189 147.75 95.3124 151.683 92.489C155.418 89.8084 157.681 85.6008 157.681 80.9758C157.681 76.3507 155.418 72.1431 151.683 69.4625L151.672 69.4515Z" fill="#686D71"></path>
  <path d="M65.3448 78.9324C62.3236 78.8774 61.3678 77.8887 61.3459 74.8896C61.3239 72.1101 61.3459 68.8253 61.3459 66.002H54.6994C54.6994 68.8473 54.6445 74.6259 54.7543 77.4053C54.974 82.8214 56.7538 84.5132 62.2797 84.7C66.1138 84.8318 69.1679 84.7879 74.4741 84.7769V78.9763C70.2225 78.9763 68.4867 78.9873 65.3448 78.9324Z" fill="#686D71"></path>
  <path d="M98.3027 74.9884C98.2807 77.9107 97.3249 78.8774 94.3038 78.9324C92.8646 78.9653 89.0745 78.9763 85.9545 78.9763C85.9545 78.9763 85.9325 78.9763 85.9215 78.9763C82.7356 78.9763 79.341 78.9763 77.3416 78.9763V95.9496H85.1525V84.7879C85.3942 84.7879 85.6469 84.7879 85.9106 84.7879C85.9106 84.7879 85.9325 84.7879 85.9435 84.7879C90.0083 84.7879 95.0948 84.7769 97.0063 84.722C102.884 84.5462 104.675 82.8873 104.883 77.4163C104.916 76.6803 104.927 75.7574 104.938 74.7467V66.0129H98.2917C98.2917 68.9022 98.3027 72.1431 98.2917 74.9994L98.3027 74.9884Z" fill="#686D71"></path>
</svg>
