<?xml version="1.0" encoding="UTF-8"?>
<svg xmlns="http://www.w3.org/2000/svg" width="160" height="164" viewBox="0 0 160 164" fill="none">
  <g clip-path="url(#clip0_15060_6927)">
    <path d="M8.25965 89.1402L6.6606 96.6785H146.006L147.605 89.1402H8.25965Z" fill="#FFD000"></path>
    <mask id="mask0_15060_6927" style="mask-type:luminance" maskUnits="userSpaceOnUse" x="6" y="43" width="151" height="85">
      <path d="M156.202 43.7424H6.6606V127.251H156.202V43.7424Z" fill="white"></path>
    </mask>
    <g mask="url(#mask0_15060_6927)">
      <path d="M112.594 76.1878C111.353 74.8477 112.091 72.1826 112.731 69.1748L114.909 58.9485H123.848L125.462 51.3416H116.515L118.099 43.7499H109.67L104.142 69.8754C103.312 73.7816 103 76.835 104.69 80.1245C106.266 83.1779 111.65 86.1019 118.457 84.2592L119.965 77.1929C115.343 77.764 113.492 77.1701 112.579 76.1954" fill="black"></path>
      <path d="M41.2225 43.7424L37.1945 62.6112H22.407L26.4199 43.7424H17.9069L9.31006 84.244H17.8079L20.7775 70.2105H35.5802L32.5953 84.244H41.0322L49.6366 43.7424H41.2225Z" fill="black"></path>
      <path d="M89.7805 54.1971C86.8337 56.6642 85.1585 59.8851 84.0696 64.9792L79.973 84.2516H88.4099L91.8059 68.2687C92.6131 64.53 93.2222 62.1923 94.6309 60.7532C96.5574 58.781 99.3595 58.6668 102.718 58.9485L104.339 51.3416C98.4153 49.834 93.2375 51.3112 89.7805 54.2047" fill="black"></path>
      <path d="M155.623 51.334H129.292L127.678 58.9485H142.953L123.848 76.934L122.294 84.244H148.625L150.247 76.6371H134.881L154.085 58.5754L155.623 51.334Z" fill="black"></path>
      <path d="M66.7621 50.7325C63.9143 50.7325 60.0156 51.6158 56.1855 54.6159C47.5506 61.3929 43.2637 84.8456 61.805 84.8456C66.6098 84.8456 71.9552 83.3227 75.6635 80.5205L72.3055 74.8553C69.5033 77.0103 55.3708 81.7084 56.8556 70.2562H78.9453C78.9453 70.2562 81.7627 61.0731 77.7118 55.5297C74.2624 50.8087 67.9119 50.7249 66.7469 50.7249M72.2445 63.2889H58.7211C59.1932 61.469 62.0639 56.9917 67.4017 57.479C73.1354 58.012 72.2445 63.2889 72.2445 63.2889Z" fill="black"></path>
      <path d="M154.321 80.0256H154.298C152.989 80.0256 151.732 81.0916 151.451 82.3785C151.413 82.5384 151.397 82.7059 151.397 82.8734C151.397 83.9166 152.151 84.7085 153.293 84.7161H153.301C154.611 84.7161 155.867 83.6425 156.149 82.3633C156.179 82.1957 156.194 82.0358 156.194 81.8759C156.202 80.8327 155.448 80.0408 154.314 80.0332M155.837 82.2871C155.608 83.4065 154.443 84.3963 153.316 84.3811C152.326 84.3659 151.763 83.7491 151.74 82.8658C151.74 82.7288 151.755 82.5841 151.786 82.4394C152.006 81.3201 153.164 80.3454 154.298 80.3454C155.311 80.3606 155.867 80.9774 155.89 81.8683C155.89 81.9978 155.875 82.1424 155.844 82.2871" fill="#929497"></path>
      <path d="M154.138 81.2439H153.141L152.661 83.4826H153.156L153.308 82.7592H153.697L154.017 83.4826H154.603L154.222 82.683C154.527 82.5764 154.778 82.348 154.854 81.9825C154.953 81.518 154.664 81.2439 154.131 81.2439M154.352 82.013C154.306 82.2033 154.146 82.3404 153.895 82.3404H153.4L153.537 81.6855H154.017C154.268 81.6855 154.39 81.7921 154.344 82.013" fill="#929497"></path>
      <path d="M103.449 105.824L103.456 103.387H100.083L100.068 106.204H103.449V105.824Z" fill="black"></path>
      <path d="M109.258 105.824L109.266 103.387H105.885L105.877 106.204H109.258V105.824Z" fill="black"></path>
      <path d="M105.908 115.418C105.908 116.522 105.817 117.261 105.664 117.634C105.322 118.311 104.621 118.646 103.487 118.646H96.2605V108.199H92.8264V119.941C92.8264 122.888 91.4101 124.304 88.5546 124.304V127.251C92.735 127.251 95.5295 125.446 96.0549 122.149H104.225C107.637 122.149 109.357 120.306 109.357 116.591V108.199H105.908V115.426V115.418Z" fill="black"></path>
      <path d="M135.407 103.775L135.003 107.065C139.458 107.986 142.625 112.631 142.625 117.824C142.625 118.098 142.625 118.372 142.595 118.654H138.536C139.062 117.398 139.336 116.347 139.336 115.464C139.336 111.778 136.846 109.501 133.252 109.501C129.658 109.501 127.16 111.839 127.16 115.464C127.16 116.354 127.434 117.398 127.967 118.654H119.332V108.207H115.891V119.949C115.891 122.895 114.474 124.312 111.619 124.312V127.258C115.799 127.258 118.594 125.454 119.119 122.157H145.702C145.915 120.923 146.006 119.697 146.006 118.502C146.006 110.819 141.986 105.1 135.407 103.775ZM133.259 118.738C131.599 118.738 130.434 117.322 130.434 115.456C130.434 113.59 131.447 112.227 133.259 112.227C135.072 112.227 136.092 113.613 136.092 115.456C136.092 117.299 134.919 118.738 133.259 118.738Z" fill="black"></path>
      <path d="M96.2302 105.824L96.2378 103.387H92.8569V106.204H96.2302V105.824Z" fill="black"></path>
    </g>
  </g>
  <defs>
    <clipPath id="clip0_15060_6927">
      <rect width="160" height="164" fill="white"></rect>
    </clipPath>
  </defs>
</svg>
