<svg width="52" height="45" viewBox="0 0 52 45" fill="none" xmlns="http://www.w3.org/2000/svg">
<path d="M29.5005 4.02044L24.6656 1.94287C22.6692 1.08503 21.3785 3.27899 21.8276 4.71823" stroke="#0A4875" stroke-width="1.7" stroke-miterlimit="22.9256"/>
<path d="M35.4453 11.5966C36.3749 10.667 37.8959 10.667 38.8255 11.5966C39.7551 12.5262 39.7549 14.0474 38.8255 14.9768L36.2314 17.5709" stroke="#0A4875" stroke-width="1.7" stroke-miterlimit="2.6131"/>
<path d="M33.4742 13.5671L35.9085 11.1329C36.838 10.2034 36.8381 8.6823 35.9084 7.75272C34.9789 6.82315 33.4578 6.82315 32.5283 7.75272" stroke="#0A4875" stroke-width="1.7" stroke-miterlimit="2.6131"/>
<path d="M11.7944 21.7265L6.65234 26.8685M17.7842 38.0004L21.6272 34.1574L26.7633 33.7989L40.6999 19.8623C41.629 18.9332 41.6295 17.4117 40.6999 16.4821C39.7704 15.5525 38.2493 15.5525 37.3198 16.4821" stroke="#0A4875" stroke-width="1.7" stroke-miterlimit="22.9256"/>
<path d="M25.3149 8.20588L29.5004 4.02047C30.4298 3.09089 31.9511 3.0911 32.8805 4.02047C33.81 4.94995 33.8099 6.47118 32.8805 7.40065L30.7953 9.48576" stroke="#0A4875" stroke-width="1.7" stroke-miterlimit="22.9256"/>
<path fill-rule="evenodd" clip-rule="evenodd" d="M21.9351 11.586C22.8646 12.5156 24.3858 12.5155 25.3153 11.586C26.2447 10.6565 26.2446 9.13529 25.3153 8.20591L21.8277 4.71839C20.8981 3.78881 19.377 3.78891 18.4475 4.71839C17.5181 5.64796 17.5182 7.16909 18.4476 8.09857L21.9351 11.586Z" stroke="#0A4875" stroke-width="1.7" stroke-miterlimit="22.9256"/>
<path d="M18.7994 8.45065C17.8699 7.52117 16.3487 7.52117 15.4193 8.45065C14.4898 9.38022 14.4898 10.9013 15.4193 11.8307L18.5548 14.9662C19.4843 15.8958 21.0055 15.8956 21.9349 14.9662C22.8643 14.0367 22.8642 12.5155 21.9349 11.5861" stroke="#0A4875" stroke-width="1.7" stroke-miterlimit="22.9256"/>
<path d="M15.883 12.2943C14.9535 11.3648 13.4322 11.3648 12.5028 12.2943C11.5732 13.2238 11.5734 14.745 12.5028 15.6745L15.1747 18.3463C16.1043 19.2759 17.6254 19.2758 18.5549 18.3463C19.4844 17.4168 19.4843 15.8956 18.5549 14.9662" stroke="#0A4875" stroke-width="1.7" stroke-miterlimit="22.9256"/>
<path d="M14.0084 17.1799C13.0789 16.2504 11.5577 16.2504 10.6282 17.1799C9.69875 18.1094 9.69885 19.6306 10.6282 20.5601L11.7946 21.7265C12.7242 22.6561 14.2453 22.6558 15.1748 21.7265C16.1043 20.797 16.1042 19.2758 15.1748 18.3464" stroke="#0A4875" stroke-width="1.7" stroke-miterlimit="22.9256"/>
<path d="M39.5405 21.0216L45.3479 26.8288M34.1442 38.0327L28.3369 32.2254" stroke="#0A4875" stroke-width="1.7" stroke-miterlimit="22.9256"/>
<path d="M12.7518 32.968L19.0651 39.2814L15.2221 43.1244C14.5177 43.8288 13.3646 43.8288 12.6601 43.1244L1.52836 31.9926C0.823931 31.2882 0.823831 30.1351 1.52836 29.4306L5.37131 25.5876L11.6847 31.901" stroke="#0A4875" stroke-width="1.7" stroke-miterlimit="22.9256"/>
<path d="M44.3724 38.0523L39.34 43.0847C38.6356 43.7891 37.4825 43.7892 36.778 43.0847L32.9351 39.2417L46.6288 25.548L50.4718 29.3909C51.1762 30.0954 51.1762 31.2485 50.4718 31.9529L45.4394 36.9853" stroke="#0A4875" stroke-width="1.7" stroke-miterlimit="22.9256"/>
<path d="M40.5716 6.78078L43.9242 4.41861M13.3297 4.42857L11.0836 1M11.4282 6.78078L8.07559 4.41861M9.85306 9.36288L5.86865 8.40151M38.6701 4.42857L40.9161 1M42.1467 9.36288L46.1311 8.40151" stroke="#0A4875" stroke-width="1.7" stroke-miterlimit="22.9256"/>
<path d="M25.9465 18.9524L24.8794 17.8853M28.0806 21.0865L27.0135 20.0194" stroke="#0A4875" stroke-width="1.7" stroke-miterlimit="2.6131"/>
</svg>
