<svg width="50" height="51" viewBox="0 0 50 51" fill="none" xmlns="http://www.w3.org/2000/svg">
<path d="M18.1641 43.5781H31.8359" stroke="#0A4875" stroke-width="1.7" stroke-miterlimit="10"/>
<path d="M17.9688 40.6484H32.0312" stroke="#0A4875" stroke-width="1.7" stroke-miterlimit="10"/>
<path d="M17.1875 37.7188H32.8125" stroke="#0A4875" stroke-width="1.7" stroke-miterlimit="10"/>
<path d="M29.3945 46.5078V47.4844C29.3945 48.5631 28.5201 49.4375 27.4414 49.4375H22.5586C21.4799 49.4375 20.6055 48.5631 20.6055 47.4844V46.5078" stroke="#0A4875" stroke-width="1.7" stroke-miterlimit="10"/>
<path d="M6.44531 19.5547C6.44531 9.30723 14.7525 1 25 1C35.2475 1 43.5547 9.30723 43.5547 19.5547C43.5547 25.993 40.2754 31.6651 35.296 34.9926C33.1311 36.4393 31.8359 38.8755 31.8359 41.4795V44.5547C31.8359 45.6334 30.9615 46.5078 29.8828 46.5078H20.1172C19.0385 46.5078 18.1641 45.6334 18.1641 44.5547V41.4795C18.1641 38.8756 16.8689 36.4394 14.704 34.9926C9.72461 31.6651 6.44531 25.993 6.44531 19.5547Z" stroke="#0A4875" stroke-width="1.7" stroke-miterlimit="10" stroke-dasharray="316 15"/>
<path d="M0 19.8477H3.71094" stroke="#0A4875" stroke-width="1.7" stroke-miterlimit="10"/>
<path d="M46.2891 19.8477H50" stroke="#0A4875" stroke-width="1.7" stroke-miterlimit="10"/>
<path d="M1.50781 28.3981L4.99492 27.1289" stroke="#0A4875" stroke-width="1.7" stroke-miterlimit="10"/>
<path d="M45.0054 12.5664L48.4925 11.2971" stroke="#0A4875" stroke-width="1.7" stroke-miterlimit="10"/>
<path d="M5.84912 35.9175L8.6918 33.5321" stroke="#0A4875" stroke-width="1.7" stroke-miterlimit="10"/>
<path d="M41.3081 6.16331L44.1508 3.77795" stroke="#0A4875" stroke-width="1.7" stroke-miterlimit="10"/>
<path d="M48.4925 28.3981L45.0054 27.1289" stroke="#0A4875" stroke-width="1.7" stroke-miterlimit="10"/>
<path d="M4.99492 12.5664L1.50781 11.2971" stroke="#0A4875" stroke-width="1.7" stroke-miterlimit="10"/>
<path d="M44.1508 35.9175L41.3081 33.5321" stroke="#0A4875" stroke-width="1.7" stroke-miterlimit="10"/>
<path d="M8.6918 6.16331L5.84912 3.77795" stroke="#0A4875" stroke-width="1.7" stroke-miterlimit="10"/>
<path d="M34.9408 19.9212C36.0056 19.2729 36.7188 18.1068 36.7188 16.7715C36.7188 14.9083 35.3335 13.3718 33.5352 13.1202C33.5936 12.9103 33.6349 12.6934 33.6349 12.4648C33.6349 11.1057 32.5303 10.0039 31.1678 10.0039C31.0967 10.0039 31.0299 10.0188 30.9604 10.0247C30.4578 8.58105 29.0855 7.54297 27.4671 7.54297C26.518 7.54297 25.6551 7.90244 25 8.48848C24.3449 7.90254 23.482 7.54297 22.5329 7.54297C20.9145 7.54297 19.5423 8.58105 19.0396 10.0247C18.9701 10.0188 18.9033 10.0039 18.8322 10.0039C17.4696 10.0039 16.3651 11.1057 16.3651 12.4648C16.3651 12.6934 16.4064 12.9103 16.4648 13.1202C14.6665 13.3717 13.2812 14.9082 13.2812 16.7715C13.2812 18.1068 13.9944 19.2729 15.0592 19.9212C14.3566 20.4851 13.898 21.3392 13.898 22.3086C13.898 23.502 14.5865 24.525 15.5822 25.0351C15.3022 25.4982 15.1315 26.035 15.1315 26.6152C15.1315 28.2438 16.4044 29.5633 18.0098 29.6707C18.6989 31.1355 20.1866 32.1523 21.9161 32.1523C23.1249 32.1523 24.2163 31.6555 25 30.8569C25.7837 31.6555 26.8751 32.1523 28.0839 32.1523C29.8134 32.1523 31.3011 31.1355 31.9902 29.6707C33.5956 29.5633 34.8685 28.2438 34.8685 26.6152C34.8685 26.035 34.6979 25.4982 34.4178 25.0351C35.4135 24.525 36.102 23.502 36.102 22.3086C36.102 21.3392 35.6434 20.485 34.9408 19.9212Z" stroke="#0A4875" stroke-width="1.7" stroke-miterlimit="10"/>
<path d="M25 8.48853V30.857" stroke="#0A4875" stroke-width="1.7" stroke-miterlimit="10"/>
<path d="M16.4648 13.1201C16.4648 13.1201 18.4082 12.8163 19.5801 14.8671" stroke="#0A4875" stroke-width="1.7" stroke-miterlimit="10"/>
<path d="M33.5352 13.1201C33.5352 13.1201 31.5918 12.8163 30.4199 14.8671" stroke="#0A4875" stroke-width="1.7" stroke-miterlimit="10"/>
<path d="M18.0098 29.6707C18.0098 29.6707 20.752 29.8086 20.459 26.7324" stroke="#0A4875" stroke-width="1.7" stroke-miterlimit="10"/>
<path d="M15.0591 19.9212C15.0591 19.9212 17.5292 18.2363 19.287 21.6054" stroke="#0A4875" stroke-width="1.7" stroke-miterlimit="10"/>
<path d="M31.9902 29.6707C31.9902 29.6707 29.248 29.8086 29.541 26.7324" stroke="#0A4875" stroke-width="1.7" stroke-miterlimit="10"/>
<path d="M34.9408 19.9212C34.9408 19.9212 32.4707 18.2363 30.7129 21.6054" stroke="#0A4875" stroke-width="1.7" stroke-miterlimit="10"/>
<path d="M40.625 22.0938V20.6289" stroke="#0A4875" stroke-width="1.7" stroke-miterlimit="10"/>
<path d="M40.625 19.0664V17.6016" stroke="#0A4875" stroke-width="1.7" stroke-miterlimit="10"/>
</svg>
