<svg width="53" height="53" viewBox="0 0 53 53" fill="none" xmlns="http://www.w3.org/2000/svg">
<path d="M26.4581 7.18186C28.1652 7.18186 29.549 5.798 29.549 4.09093C29.549 2.38386 28.1652 1 26.4581 1C24.751 1 23.3672 2.38386 23.3672 4.09093C23.3672 5.798 24.751 7.18186 26.4581 7.18186Z" stroke="#0A4875" stroke-width="1.7" stroke-miterlimit="10"/>
<path d="M32.6267 52H38.7954V51.1643C38.7954 49.8734 37.749 48.827 36.4581 48.827H16.4579C15.167 48.827 14.1206 49.8734 14.1206 51.1643V52H31.0845" stroke="#0A4875" stroke-width="1.7" stroke-miterlimit="10"/>
<path d="M35.7112 48.827V45.7427H17.2051V48.827" stroke="#0A4875" stroke-width="1.7" stroke-miterlimit="10"/>
<path d="M24.9155 20.2848V45.7242" stroke="#0A4875" stroke-width="1.7" stroke-miterlimit="10"/>
<path d="M24.9155 6.729V18.758" stroke="#0A4875" stroke-width="1.7" stroke-miterlimit="10"/>
<path d="M28 6.729V45.7242" stroke="#0A4875" stroke-width="1.7" stroke-miterlimit="10"/>
<path d="M44.1613 14.9185C45.013 14.9185 45.7035 14.228 45.7035 13.3763C45.7035 12.5246 45.013 11.8341 44.1613 11.8341C43.3096 11.8341 42.6191 12.5246 42.6191 13.3763C42.6191 14.228 43.3096 14.9185 44.1613 14.9185Z" stroke="#0A4875" stroke-width="1.7" stroke-miterlimit="10"/>
<path d="M48.7947 33.4246H39.5284C37.8287 33.4246 36.4507 32.0466 36.4507 30.3468V28.7981H51.8724V30.3468C51.8724 32.0466 50.4944 33.4246 48.7947 33.4246Z" stroke="#0A4875" stroke-width="1.7" stroke-miterlimit="10"/>
<path d="M44.162 14.9185L38.1289 28.798" stroke="#0A4875" stroke-width="1.7" stroke-miterlimit="10"/>
<path d="M44.1616 14.9185L50.4134 28.798" stroke="#0A4875" stroke-width="1.7" stroke-miterlimit="10"/>
<path d="M8.71063 14.9185C9.56235 14.9185 10.2528 14.228 10.2528 13.3763C10.2528 12.5246 9.56235 11.8341 8.71063 11.8341C7.85891 11.8341 7.16846 12.5246 7.16846 13.3763C7.16846 14.228 7.85891 14.9185 8.71063 14.9185Z" stroke="#0A4875" stroke-width="1.7" stroke-miterlimit="10"/>
<path d="M6.40964 33.4246H4.07777C2.37798 33.4246 1 32.0466 1 30.3468V28.7981H16.4217V30.3468C16.4217 32.0466 15.0438 33.4246 13.344 33.4246H7.95181" stroke="#0A4875" stroke-width="1.7" stroke-miterlimit="10"/>
<path d="M8.71082 14.9185L2.67773 28.798" stroke="#0A4875" stroke-width="1.7" stroke-miterlimit="10"/>
<path d="M8.71094 14.9185L14.9628 28.798" stroke="#0A4875" stroke-width="1.7" stroke-miterlimit="10"/>
<path d="M10.2529 13.3763H42.6194" stroke="#0A4875" stroke-width="1.7" stroke-miterlimit="10"/>
</svg>
