<svg width="52" height="52" viewBox="0 0 52 52" fill="none" xmlns="http://www.w3.org/2000/svg">
<path d="M44.2192 43.1168C48.4235 38.6439 51 32.6231 51 26H11.664M10.1549 26H1C1 39.8071 12.1929 51 26 51C32.6231 51 38.6437 48.4234 43.1168 44.2193" stroke="#0A4875" stroke-width="1.7" stroke-miterlimit="22.9256"/>
<path d="M25.1447 26C25.1447 27.9995 24.0379 29.0181 22.7303 29.0181H20.6553C19.4106 29.0181 18.3917 30.0369 18.3917 31.2817V38.5529C18.3917 40.6278 16.694 42.3256 14.6191 42.3256C12.5441 42.3256 10.8465 40.6279 10.8465 38.5529V34.1874C10.8465 32.9425 9.82775 31.9238 8.58288 31.9238H6.59757C5.3528 31.9238 4.33398 32.9427 4.33398 34.1874V38.4814" stroke="#0A4875" stroke-width="1.7" stroke-miterlimit="22.9256"/>
<path d="M38.3197 47.7586C38.2559 46.5697 37.2636 45.6176 36.0595 45.6176C34.8145 45.6176 33.7959 44.599 33.7959 43.354C33.7959 42.1091 34.8145 41.0904 36.0595 41.0904H37.5308C38.7757 41.0904 39.7944 40.0717 39.7944 38.8269C39.7944 37.582 38.7754 36.5633 37.5308 36.5633H35.4289C33.3543 36.5633 31.6562 34.8656 31.6562 32.7907C31.6562 30.7158 33.3538 29.0181 35.4289 29.0181H41.1911C42.436 29.0181 43.4546 27.9994 43.4546 26.7545V26" stroke="#0A4875" stroke-width="1.7" stroke-miterlimit="22.9256"/>
<path d="M46.8451 29.0179H48.3541M45.3359 32.0361H46.845" stroke="#0A4875" stroke-width="1.7" stroke-miterlimit="22.9256"/>
<path d="M23.0137 15.7869L23.6749 13.3955M28.9865 15.7869L28.3251 13.3955" stroke="#0A4875" stroke-width="1.7" stroke-miterlimit="22.9256"/>
<path d="M23.0136 15.7869L20.0057 16.711C18.4878 17.1773 17.7002 18.3337 17.7002 19.7235V26M34.2998 26V19.7235C34.2998 18.3335 33.5122 17.1773 31.9943 16.711L28.9864 15.7869" stroke="#0A4875" stroke-width="1.7" stroke-miterlimit="22.9256"/>
<path d="M28.9865 15.7869C28.9865 17.4362 27.6494 18.7733 26.0001 18.7733C24.3508 18.7733 23.0137 17.4362 23.0137 15.7869" stroke="#0A4875" stroke-width="1.7" stroke-miterlimit="22.9256"/>
<path d="M31.5332 8.37756C31.5332 6.85593 30.2882 5.61096 28.7666 5.61096H23.2334C21.7118 5.61096 20.4668 6.85593 20.4668 8.37756" stroke="#0A4875" stroke-width="1.7" stroke-miterlimit="22.9256"/>
<path fill-rule="evenodd" clip-rule="evenodd" d="M26 1C29.0433 1 31.5332 3.48994 31.5332 6.5332V8.37757C31.5332 11.4208 29.0433 13.9108 26 13.9108C22.9567 13.9108 20.4668 11.4208 20.4668 8.37757V6.5332C20.4668 3.48994 22.9566 1 26 1Z" stroke="#0A4875" stroke-width="1.7" stroke-miterlimit="22.9256"/>
<path d="M38.647 18.2494L39.188 16.2927M43.5339 18.2494L42.9928 16.2927" stroke="#0A4875" stroke-width="1.7" stroke-miterlimit="22.9256"/>
<path d="M38.6471 18.2494L36.1861 19.0054C34.9443 19.3869 34.2998 20.3332 34.2998 21.4702M47.8813 26V21.4703C47.8813 20.3331 47.2368 19.3871 45.995 19.0055L43.534 18.2495" stroke="#0A4875" stroke-width="1.7" stroke-miterlimit="22.9256"/>
<path d="M43.5339 18.2494C43.5339 19.5989 42.4399 20.6928 41.0904 20.6928C39.7409 20.6928 38.647 19.5989 38.647 18.2494" stroke="#0A4875" stroke-width="1.7" stroke-miterlimit="22.9256"/>
<path d="M45.6178 12.1873C45.6178 10.9423 44.5992 9.92371 43.3542 9.92371H38.8271C37.5821 9.92371 36.5635 10.9423 36.5635 12.1873" stroke="#0A4875" stroke-width="1.7" stroke-miterlimit="22.9256"/>
<path fill-rule="evenodd" clip-rule="evenodd" d="M41.0906 6.15112C43.5806 6.15112 45.6178 8.18835 45.6178 10.6783V12.1873C45.6178 14.6773 43.5806 16.7145 41.0906 16.7145C38.6007 16.7145 36.5635 14.6773 36.5635 12.1873V10.6783C36.5635 8.18835 38.6007 6.15112 41.0906 6.15112Z" stroke="#0A4875" stroke-width="1.7" stroke-miterlimit="22.9256"/>
<path d="M13.3532 18.2494L12.8122 16.2927M8.46631 18.2494L9.00735 16.2927" stroke="#0A4875" stroke-width="1.7" stroke-miterlimit="22.9256"/>
<path d="M13.3529 18.2494L15.8138 19.0054C17.0557 19.3869 17.7001 20.3332 17.7001 21.4702M4.11865 26V21.4703C4.11865 20.3331 4.76312 19.3871 6.00497 19.0055L8.46594 18.2495" stroke="#0A4875" stroke-width="1.7" stroke-miterlimit="22.9256"/>
<path d="M8.46631 18.2494C8.46631 19.5989 9.56027 20.6928 10.9098 20.6928C12.2593 20.6928 13.3532 19.5989 13.3532 18.2494" stroke="#0A4875" stroke-width="1.7" stroke-miterlimit="22.9256"/>
<path d="M6.38232 12.1873C6.38232 10.9423 7.40094 9.92371 8.64591 9.92371H13.1731C14.418 9.92371 15.4367 10.9423 15.4367 12.1873" stroke="#0A4875" stroke-width="1.7" stroke-miterlimit="22.9256"/>
<path fill-rule="evenodd" clip-rule="evenodd" d="M10.9095 6.15112C8.41955 6.15112 6.38232 8.18835 6.38232 10.6783V12.1873C6.38232 14.6773 8.41955 16.7145 10.9095 16.7145C13.3994 16.7145 15.4367 14.6773 15.4367 12.1873V10.6783C15.4367 8.18835 13.3994 6.15112 10.9095 6.15112Z" stroke="#0A4875" stroke-width="1.7" stroke-miterlimit="22.9256"/>
</svg>
